{"glyphs":{":":{"x_min":0,"x_max":287,"ha":287,"o":"m 63 0 q 49 0 40 8 q 31 16 31 28 q 31 46 45 61 q 60 75 80 75 q 93 75 102 67 q 111 59 111 47 q 111 28 97 14 q 83 0 63 0 z m 197 166 q 183 166 175 174 q 166 182 166 194 q 166 212 181 227 q 195 241 215 241 q 229 241 237 233 q 246 225 246 213 q 246 194 231 180 q 216 166 197 166 z"},"$":{"x_min":0,"x_max":481,"ha":481,"o":"m 372 360 l 537 589 q 452 589 407 550 q 362 511 362 436 q 362 418 365 399 q 367 380 372 360 z m 151 17 l 165 17 q 245 17 292 62 q 339 106 339 182 q 339 197 337 218 q 334 239 330 265 z m 47 -125 q 46 -126 45 -127 q 36 -139 27 -139 q 23 -139 21 -136 q 18 -132 18 -128 q 18 -125 22 -120 q 25 -117 26 -115 l 111 2 q 65 21 44 52 q 22 83 22 128 q 22 151 26 161 q 29 172 37 172 q 41 172 44 169 q 47 167 47 163 q 47 161 45 149 q 44 137 44 128 q 44 91 66 63 q 87 36 126 23 l 324 294 q 318 329 316 354 q 313 379 313 397 q 313 494 372 551 q 431 609 529 609 q 538 609 542 609 q 547 608 551 608 l 600 675 l 600 675 q 610 688 620 688 q 624 688 626 685 q 628 683 628 678 q 628 675 624 669 q 621 666 620 664 l 576 603 q 607 593 627 566 q 647 539 647 508 q 647 502 644 499 q 642 495 637 495 q 628 495 625 513 q 623 523 620 530 q 611 553 596 565 q 582 578 561 582 l 378 330 q 388 297 392 270 q 397 243 397 220 q 397 123 331 58 q 264 -7 163 -7 q 151 -7 145 -7 q 139 -6 134 -6 z"},"?":{"x_min":0,"x_max":537,"ha":537,"o":"m 261 122 q 261 134 279 151 q 297 168 357 207 q 360 209 366 213 q 441 260 488 319 q 524 363 543 401 q 563 439 563 464 q 563 493 544 509 q 526 525 492 525 q 457 525 414 508 q 371 490 334 461 q 294 429 272 393 q 250 357 250 325 q 250 296 267 279 q 283 262 311 262 q 352 262 391 296 q 430 330 456 389 q 462 403 467 428 q 472 452 481 452 q 486 452 488 449 q 490 447 490 442 q 490 426 481 398 q 471 371 456 344 q 427 295 389 268 q 351 240 312 240 q 275 240 252 264 q 229 288 229 325 q 229 363 253 403 q 277 442 322 478 q 362 509 409 528 q 456 546 495 546 q 543 546 572 518 q 600 489 600 441 q 600 406 587 370 q 574 335 549 302 q 503 241 396 191 q 387 187 382 184 q 337 163 320 153 q 302 142 293 133 q 290 130 285 123 q 275 110 269 110 q 265 110 263 113 q 261 116 261 122 z m 220 0 q 206 0 198 8 q 189 16 189 28 q 189 46 204 61 q 218 75 238 75 q 251 75 260 67 q 269 59 269 47 q 269 28 254 14 q 240 0 220 0 z"},"<":{"x_min":0,"x_max":833,"ha":833,"o":"m 704 549 l 704 505 l 194 298 l 704 91 l 704 48 l 129 283 l 129 313 z"},"'":{"x_min":0,"x_max":167,"ha":167,"o":"m 90 425 l 76 425 l 47 646 q 46 649 46 654 q 46 658 46 668 q 46 691 55 702 q 64 714 83 714 q 101 714 111 702 q 121 690 121 668 q 121 665 121 660 q 120 656 119 646 z"},"=":{"x_min":0,"x_max":833,"ha":833,"o":"m 124 229 l 709 229 l 709 189 l 124 189 z m 124 406 l 709 406 l 709 367 l 124 367 z"},"a":{"x_min":0,"x_max":377,"ha":377,"o":"m 129 73 l 241 193 q 248 200 251 207 q 255 213 255 219 q 255 224 251 227 q 248 230 242 230 q 226 230 198 216 q 171 202 143 178 q 97 140 66 98 q 36 56 36 36 q 36 29 40 25 q 44 21 51 21 q 64 21 85 35 q 106 49 129 73 z m 133 53 q 104 24 79 10 q 54 -5 34 -5 q 14 -5 2 10 q -9 25 -9 53 q -9 86 7 116 q 22 146 55 174 q 97 211 146 234 q 194 256 231 256 q 252 256 262 248 q 271 240 273 222 q 280 230 289 238 q 298 245 309 252 q 313 252 320 252 q 328 253 331 253 q 348 253 355 250 q 363 248 363 241 q 363 235 340 215 q 328 205 321 198 q 255 136 218 93 q 181 49 181 33 q 181 27 184 24 q 187 22 194 22 q 215 22 257 43 q 299 63 346 99 q 366 114 388 133 q 411 153 415 153 q 418 153 421 150 q 423 148 423 144 q 423 135 368 91 l 366 89 q 312 45 262 21 q 212 -4 181 -4 q 159 -4 145 9 q 132 21 132 42 q 132 46 132 49 q 132 51 133 53 z"},"L":{"x_min":0,"x_max":601,"ha":601,"o":"m 150 34 q 85 53 33 62 q -19 71 -59 71 q -83 71 -98 65 q -113 59 -113 50 q -113 32 -80 23 q -46 13 16 13 q 47 13 81 18 q 114 23 150 34 z m 585 378 q 703 421 786 476 q 870 530 927 602 q 946 625 956 647 q 967 669 967 684 q 967 699 959 705 q 952 712 934 712 q 870 712 779 626 q 689 540 585 378 z m 557 339 q 470 206 391 135 q 311 64 219 36 q 257 25 288 20 q 320 14 344 14 q 406 14 461 36 q 516 58 584 110 q 595 118 611 132 q 634 152 641 152 q 644 152 646 150 q 648 147 648 144 q 648 138 636 126 q 624 114 588 86 q 521 33 467 13 q 413 -8 350 -8 q 311 -8 271 0 q 231 8 188 24 q 147 8 103 0 q 60 -8 12 -8 q -61 -8 -99 6 q -137 21 -137 48 q -137 71 -115 82 q -92 93 -46 93 q 0 93 57 81 q 114 70 178 47 q 248 81 316 144 q 384 208 457 310 l 326 283 l 316 281 q 276 273 270 273 q 261 273 257 275 q 252 278 252 282 q 252 293 333 308 q 415 322 484 341 q 630 538 742 636 q 854 734 933 734 q 962 734 977 720 q 992 706 992 679 q 992 603 876 511 q 759 420 557 339 z"},"3":{"x_min":0,"x_max":417,"ha":417,"o":"m 337 250 q 355 243 365 226 q 374 208 374 184 q 374 152 355 120 q 336 87 302 60 q 260 27 213 10 q 167 -7 122 -7 q 63 -7 27 23 q -10 53 -10 99 q -10 134 12 159 q 33 183 64 183 q 82 183 92 175 q 102 167 102 153 q 102 138 91 127 q 80 117 63 117 q 56 117 46 121 q 36 124 33 124 q 27 124 23 116 q 18 107 18 97 q 18 63 43 42 q 68 21 108 21 q 145 21 186 43 q 227 65 270 107 q 296 133 312 160 q 328 188 328 205 q 328 219 320 227 q 312 235 297 237 q 293 237 286 238 q 262 239 262 249 q 262 258 297 268 q 332 278 361 295 q 385 309 410 332 q 435 355 462 391 q 479 413 487 428 q 494 443 494 455 q 494 472 484 482 q 474 491 455 491 q 432 491 402 476 q 373 460 332 427 q 286 389 266 365 q 246 341 246 325 q 246 314 251 310 q 256 305 269 305 q 293 305 326 326 q 359 347 387 381 q 397 394 408 414 q 419 435 426 435 q 430 435 433 432 q 435 430 435 425 q 435 416 429 402 q 422 388 411 374 q 380 334 340 309 q 300 284 270 284 q 244 284 229 299 q 214 313 214 339 q 214 360 226 385 q 239 409 262 434 q 298 472 343 494 q 389 515 433 515 q 473 515 495 494 q 518 473 518 437 q 518 367 471 318 q 423 269 337 250 z"},";":{"x_min":0,"x_max":287,"ha":287,"o":"m 197 166 q 183 166 175 174 q 166 182 166 194 q 166 212 181 227 q 195 241 215 241 q 229 241 237 233 q 246 225 246 213 q 246 194 231 180 q 216 166 197 166 z m 60 0 l 57 0 q 44 0 38 7 q 31 14 31 27 q 31 47 45 64 q 60 81 78 81 q 93 81 102 71 q 112 61 112 45 q 112 29 103 13 q 94 -3 77 -19 q 60 -34 40 -44 q 20 -54 9 -54 q 2 -54 0 -52 q -3 -50 -3 -47 q -3 -40 20 -28 q 43 -16 60 0 z"},"J":{"x_min":0,"x_max":420,"ha":420,"o":"m 367 343 q 494 496 587 580 q 680 664 760 701 q 675 685 605 656 q 536 626 478 583 q 412 533 376 482 q 341 432 341 388 q 341 372 347 361 q 354 351 367 343 z m 352 322 q 326 342 315 365 q 303 387 303 416 q 303 478 350 534 q 397 591 489 638 q 554 672 631 692 q 708 711 794 716 q 806 724 817 727 q 828 731 840 731 q 849 731 854 728 q 858 725 858 719 q 858 711 841 707 q 824 702 792 700 q 727 670 632 573 q 538 476 423 320 q 430 318 438 317 q 445 316 453 316 q 481 316 512 330 q 542 343 571 368 q 593 387 614 417 q 636 447 644 447 q 648 447 651 444 q 654 442 654 439 q 654 434 639 412 q 624 390 604 370 q 566 332 525 313 q 485 294 441 294 q 432 294 423 295 q 414 296 405 298 q 361 242 308 177 q 256 111 186 26 q 253 34 300 50 q 347 66 386 96 q 408 112 431 132 q 455 153 459 153 q 462 153 465 150 q 467 148 467 144 q 467 134 411 90 l 406 86 q 359 48 302 28 q 245 8 169 3 q 54 -139 -35 -208 q -124 -278 -191 -278 q -225 -278 -244 -261 q -262 -244 -262 -213 q -262 -135 -162 -71 q -62 -6 100 15 q 150 78 212 153 q 274 229 352 322 z m 80 -10 q 26 -17 -27 -38 q -80 -59 -133 -94 q -184 -127 -209 -157 q -235 -188 -235 -213 q -235 -234 -222 -246 q -210 -257 -187 -257 q -146 -257 -91 -208 q -37 -159 80 -10 z"},"V":{"x_min":0,"x_max":569,"ha":569,"o":"m 237 54 q 375 128 614 427 l 616 430 l 634 452 q 783 640 853 689 q 875 705 898 716 q 921 726 930 726 q 936 726 939 723 q 943 720 943 715 q 943 708 923 701 q 903 693 891 686 q 816 641 662 450 l 635 417 q 622 401 597 370 q 447 184 358 110 q 297 59 242 25 q 188 -9 173 -9 q 167 -9 166 -8 q 164 -6 164 -3 q 164 6 191 38 q 218 71 235 97 q 269 149 337 298 q 405 446 453 532 q 425 507 395 492 q 365 478 341 478 q 318 478 305 492 q 291 505 291 528 q 291 560 343 615 q 349 621 352 624 q 362 634 368 644 q 374 654 374 661 q 374 667 370 670 q 365 674 358 674 q 333 674 293 648 q 252 622 210 578 q 191 558 172 530 q 153 502 148 502 q 144 502 142 504 q 139 506 139 509 q 139 523 156 548 q 173 573 204 603 q 252 650 297 676 q 341 701 374 701 q 397 701 410 688 q 423 676 423 653 q 423 630 385 588 q 378 580 374 575 l 370 571 q 337 533 337 519 q 337 511 341 508 q 344 504 353 504 q 380 504 410 525 q 439 546 498 614 q 565 691 585 710 q 604 730 612 730 q 616 730 618 728 q 620 726 620 722 q 620 715 608 703 q 601 694 597 689 q 556 635 506 510 l 504 504 q 428 317 369 221 q 311 126 237 54 z"},"\"":{"x_min":0,"x_max":325,"ha":325,"o":"m 248 425 l 234 425 l 206 646 q 205 652 205 657 q 204 663 204 668 q 204 691 213 702 q 223 714 241 714 q 259 714 269 702 q 279 690 279 668 q 279 665 279 660 q 278 656 277 646 z m 91 425 l 77 425 l 48 646 q 47 652 46 657 q 46 663 46 668 q 46 690 56 702 q 65 714 84 714 q 102 714 112 702 q 121 690 121 668 q 121 665 121 660 q 120 656 119 646 z"},"7":{"x_min":0,"x_max":319,"ha":319,"o":"m 316 467 q 314 467 311 467 q 308 468 306 468 q 290 468 278 460 q 266 453 266 443 q 266 440 269 438 q 271 437 278 437 q 288 437 298 445 q 308 453 316 467 z m 473 454 q 458 446 444 443 q 430 439 415 439 q 396 439 376 444 q 356 449 333 459 q 318 437 301 425 q 284 413 268 413 q 254 413 245 421 q 237 429 237 442 q 237 468 263 487 q 289 506 331 508 q 333 515 336 526 q 344 550 351 550 q 354 550 356 547 q 359 544 359 540 q 359 537 357 529 q 354 521 350 506 q 365 505 397 498 q 429 490 446 490 q 463 490 484 496 q 505 502 509 502 q 517 502 521 498 q 525 495 525 487 q 525 481 516 468 q 508 455 494 439 q 459 401 370 333 q 281 266 243 234 q 180 182 136 140 q 92 97 63 61 q 56 52 43 36 q 17 0 3 0 l -29 0 q -35 0 -39 2 q -43 5 -43 8 q -43 28 -2 81 q 40 135 100 184 q 155 229 267 298 q 313 327 335 341 q 380 371 413 398 q 447 426 473 454 z"},"S":{"x_min":0,"x_max":639,"ha":639,"o":"m 659 378 q 750 410 826 459 q 902 507 961 571 q 996 607 1015 638 q 1034 668 1034 686 q 1034 699 1028 705 q 1022 710 1008 710 q 943 710 848 621 q 753 532 659 378 z m 526 309 q 462 293 402 285 q 341 277 296 277 q 285 277 279 280 q 273 283 273 288 q 273 297 368 306 q 462 316 553 343 q 698 538 811 635 q 924 732 1006 732 q 1034 732 1048 719 q 1062 706 1062 680 q 1062 604 941 506 q 820 408 628 338 q 521 169 389 80 q 256 -9 112 -9 q 25 -9 -23 21 q -71 51 -71 105 q -71 134 -53 153 q -35 172 -8 172 q 13 172 26 160 q 39 148 39 129 q 39 111 27 102 q 14 92 -8 92 q -13 92 -23 94 q -33 97 -37 97 q -40 97 -42 95 q -43 92 -43 87 q -43 58 0 36 q 42 13 104 13 q 151 13 195 25 q 239 36 279 59 q 326 86 380 140 q 434 194 526 309 z"},"}":{"x_min":0,"x_max":500,"ha":500,"o":"m 87 740 l 92 740 q 196 740 236 704 q 275 668 275 571 l 275 463 q 275 387 303 359 q 332 332 414 324 l 414 297 q 333 291 304 262 q 275 233 275 158 l 275 50 q 275 -47 236 -83 q 196 -119 92 -119 l 87 -119 l 87 -97 q 162 -96 189 -70 q 216 -44 216 32 l 216 104 q 216 214 247 254 q 278 294 364 310 q 279 325 247 366 q 216 406 216 516 l 216 588 q 216 664 189 690 q 162 716 87 717 z"},"Z":{"x_min":0,"x_max":611,"ha":611,"o":"m 444 34 q 269 -1 164 -67 q 58 -133 58 -203 q 58 -229 74 -242 q 90 -256 119 -256 q 157 -256 207 -228 q 257 -201 313 -149 q 366 -100 398 -55 q 431 -9 444 34 z m 421 128 q 405 136 390 140 q 376 144 363 144 q 344 144 331 139 q 318 133 318 127 q 318 121 326 116 q 334 112 348 112 q 367 112 385 116 q 404 120 421 128 z m 439 108 q 411 100 391 96 q 372 92 356 92 q 325 92 309 101 q 294 110 294 128 q 294 144 310 155 q 327 165 353 165 q 383 165 405 158 q 427 151 444 137 q 499 158 554 205 q 609 252 663 325 q 710 388 733 441 q 756 495 756 541 q 756 618 694 664 q 631 710 526 710 q 458 710 396 687 q 334 665 277 619 q 218 572 185 514 q 152 457 152 400 q 152 350 177 320 q 202 291 245 291 q 308 291 372 343 q 437 396 483 486 q 498 515 508 553 q 518 591 527 591 q 531 591 532 585 q 534 580 534 568 q 534 535 521 491 q 507 448 484 410 q 445 345 385 306 q 324 268 260 268 q 200 268 166 303 q 132 337 132 398 q 132 444 152 492 q 172 540 211 584 q 273 655 356 693 q 439 732 530 732 q 651 732 724 668 q 797 604 797 498 q 797 385 709 286 q 622 187 460 118 q 466 108 470 94 q 474 81 475 65 q 565 88 638 146 q 653 158 656 158 q 660 158 662 156 q 664 153 664 150 q 664 133 609 100 q 553 67 475 43 q 469 -19 436 -77 q 402 -136 345 -184 q 293 -229 231 -255 q 169 -281 120 -281 q 81 -281 58 -258 q 35 -235 35 -195 q 35 -107 135 -46 q 234 15 448 58 q 448 60 449 64 q 449 68 449 70 q 449 81 447 90 q 444 100 439 108 z"},"x":{"x_min":0,"x_max":373,"ha":373,"o":"m 109 70 q 69 30 43 14 q 17 -3 -4 -3 q -20 -3 -30 7 q -39 17 -39 33 q -39 46 -29 55 q -20 65 -7 65 q 4 65 10 58 q 17 51 17 40 q 17 35 16 31 q 15 26 13 21 q 29 24 57 47 q 84 70 116 107 q 144 140 160 168 q 177 197 177 209 q 177 216 174 220 q 172 224 168 224 q 158 224 141 214 q 124 204 95 181 q 78 167 57 147 q 36 128 31 128 q 27 128 25 130 q 22 133 22 136 q 22 143 57 174 q 64 180 68 184 q 108 219 138 238 q 169 256 188 256 q 203 256 212 247 q 220 237 220 221 q 220 215 219 205 q 217 195 214 182 q 276 229 302 242 q 327 256 344 256 q 359 256 368 246 q 378 237 378 222 q 378 207 369 198 q 361 189 346 189 q 335 189 328 195 q 322 202 322 213 q 322 218 322 221 q 323 224 324 227 q 252 197 201 140 q 150 83 150 40 q 150 27 156 21 q 161 16 175 16 q 199 16 245 39 q 292 62 343 100 q 361 113 384 133 q 407 153 412 153 q 416 153 418 150 q 420 148 420 144 q 420 137 400 119 q 380 101 344 74 q 289 34 245 14 q 202 -5 166 -5 q 139 -5 124 11 q 109 28 109 59 z"},")":{"x_min":0,"x_max":440,"ha":440,"o":"m -124 -68 q -124 -61 -77 -39 q -29 -18 8 2 q 107 55 191 132 q 275 208 338 303 q 413 416 453 503 q 493 591 516 685 q 517 689 520 698 q 528 733 538 733 q 542 733 545 730 q 547 727 547 721 q 547 712 544 687 q 541 662 535 632 q 515 527 480 436 q 445 345 399 274 q 342 188 260 120 q 178 53 56 -9 q 0 -38 -52 -58 q -104 -78 -112 -78 q -118 -78 -121 -75 q -124 -73 -124 -68 z"},"&":{"x_min":0,"x_max":630,"ha":630,"o":"m 500 73 q 436 160 397 248 q 358 336 341 432 q 241 399 189 338 q 137 277 137 192 q 137 113 191 67 q 244 20 335 20 q 381 20 422 33 q 462 46 500 73 z m 369 465 q 480 494 539 539 q 597 583 597 640 q 597 670 577 689 q 558 708 527 708 q 494 708 461 683 q 429 659 402 613 q 384 582 376 552 q 367 522 367 492 q 367 487 367 482 q 368 477 369 465 z m 514 51 q 474 21 425 6 q 377 -9 322 -9 q 213 -9 145 53 q 77 115 77 212 q 77 307 142 368 q 207 430 337 458 q 334 480 334 491 q 333 502 333 511 q 333 611 385 671 q 438 731 525 731 q 584 731 618 704 q 651 678 651 631 q 651 571 586 527 q 521 482 371 440 q 384 344 421 257 q 458 169 519 88 q 546 115 561 142 q 575 169 575 192 q 575 203 572 210 q 569 218 566 218 q 565 218 563 216 q 549 204 533 204 q 516 204 506 215 q 495 226 495 243 q 495 262 508 273 q 520 285 541 285 q 568 285 587 261 q 605 237 605 200 q 605 165 587 132 q 569 99 533 67 l 556 37 l 557 37 q 568 20 568 13 q 568 9 566 7 q 565 5 562 5 q 553 5 544 15 q 542 18 542 18 z"},"_":{"x_min":0,"x_max":500,"ha":500,"o":"m 0 -197 l 500 -197 l 500 -236 l 0 -236 z"},"v":{"x_min":0,"x_max":421,"ha":421,"o":"m 311 135 q 345 173 361 195 q 376 217 376 228 q 376 230 374 231 q 372 233 368 233 q 347 233 326 209 q 305 185 305 159 q 305 155 307 148 q 308 142 311 135 z m 294 119 q 287 131 283 141 q 280 151 280 160 q 280 195 308 225 q 335 255 369 255 q 383 255 390 248 q 398 241 398 228 q 398 212 383 188 q 368 165 329 121 q 337 116 347 113 q 357 110 367 110 q 400 110 430 131 q 459 152 461 152 q 465 152 467 150 q 470 147 470 144 q 470 131 435 110 q 399 90 361 90 q 348 90 335 93 q 322 96 310 102 q 245 47 196 22 q 147 -4 107 -4 q 83 -4 70 8 q 57 19 57 41 q 57 63 75 91 q 93 119 125 147 q 134 155 150 168 q 200 210 200 218 q 200 221 197 224 q 193 227 189 227 q 180 227 158 216 q 137 205 110 186 q 87 170 62 149 q 36 128 31 128 q 28 128 25 130 q 23 133 23 136 q 23 143 40 158 q 58 174 89 196 q 130 225 163 240 q 195 255 216 255 q 232 255 240 246 q 249 237 249 221 q 249 184 159 108 l 154 104 q 125 79 112 64 q 100 49 100 38 q 100 30 105 26 q 111 22 121 22 q 148 22 196 48 q 243 75 294 119 z"},"O":{"x_min":0,"x_max":667,"ha":667,"o":"m 752 459 q 745 457 731 452 q 698 440 691 440 q 686 440 682 442 q 679 444 679 448 q 679 458 704 467 q 729 477 746 487 q 741 510 725 522 q 708 534 682 534 q 625 534 528 471 q 430 408 340 308 q 299 263 264 208 q 229 153 222 153 q 219 153 217 156 q 215 159 215 163 q 215 180 245 232 q 276 284 322 338 q 413 446 501 503 q 590 559 669 559 q 708 559 733 545 q 758 530 769 501 q 813 528 837 562 q 861 596 861 633 q 861 668 834 688 q 807 709 762 709 q 698 709 607 658 q 515 607 412 513 q 290 401 214 289 q 138 176 138 114 q 138 66 168 40 q 198 14 253 14 q 320 14 421 70 q 522 126 610 216 q 680 288 716 348 q 751 409 752 459 z m 776 471 l 776 466 q 776 420 749 366 q 722 311 668 248 q 621 193 567 147 q 514 101 456 65 q 397 28 346 10 q 295 -9 254 -9 q 185 -9 147 29 q 109 66 109 135 q 109 216 154 305 q 198 395 281 480 q 397 599 525 666 q 652 733 760 733 q 818 733 853 704 q 887 674 887 625 q 887 580 859 541 q 832 502 776 471 z"},"(":{"x_min":0,"x_max":440,"ha":440,"o":"m 809 723 q 809 716 762 694 q 714 673 677 653 q 577 600 493 523 q 409 447 347 353 q 272 241 232 153 q 192 65 169 -30 q 168 -34 166 -42 q 157 -77 147 -77 q 142 -77 140 -74 q 138 -72 138 -66 q 138 -57 141 -32 q 145 -6 150 23 q 170 128 205 219 q 240 310 286 381 q 343 467 425 535 q 506 603 628 664 q 685 693 737 713 q 789 733 797 733 q 803 733 806 730 q 809 728 809 723 z"},"C":{"x_min":0,"x_max":708,"ha":708,"o":"m 392 380 q 498 408 586 452 q 673 496 739 554 q 786 596 813 632 q 840 668 840 688 q 840 698 833 703 q 827 708 812 708 q 742 708 625 618 q 507 528 392 380 z m 286 356 q 354 445 434 519 q 514 592 605 650 q 667 689 722 711 q 777 733 814 733 q 842 733 856 720 q 870 708 870 683 q 870 599 729 503 q 588 407 363 345 q 299 262 267 202 q 236 141 236 101 q 236 61 262 39 q 288 16 334 16 q 370 16 411 38 q 453 61 506 108 q 546 145 566 170 q 585 195 585 212 q 585 228 577 234 q 570 241 553 241 q 526 241 486 220 q 446 200 407 165 q 382 143 358 111 q 334 79 327 79 q 324 79 322 82 q 319 84 319 88 q 319 96 332 115 q 344 134 364 154 q 415 208 465 235 q 514 263 558 263 q 587 263 603 246 q 619 229 619 199 q 619 163 591 122 q 563 81 516 48 q 475 20 431 5 q 387 -10 343 -10 q 275 -10 238 26 q 200 62 200 128 q 200 171 216 220 q 231 269 261 320 q 196 306 150 299 q 104 291 85 291 q 77 291 72 294 q 66 297 66 302 q 66 313 144 326 q 221 339 286 356 z"},"W":{"x_min":0,"x_max":725,"ha":725,"o":"m 473 527 q 446 508 417 497 q 389 487 364 487 q 339 487 325 500 q 311 513 311 536 q 311 569 370 619 q 377 625 381 628 q 396 640 403 650 q 410 659 410 666 q 410 672 405 676 q 399 680 390 680 q 366 680 323 659 q 280 637 237 602 q 216 584 194 559 q 172 534 167 534 q 164 534 161 537 q 159 539 159 543 q 159 555 180 578 q 200 602 234 627 q 284 665 328 685 q 372 705 404 705 q 430 705 444 692 q 458 680 458 656 q 458 630 413 591 q 404 583 400 580 q 375 558 366 546 q 357 534 357 523 q 357 516 361 514 q 364 511 374 511 q 404 511 435 529 q 466 546 526 602 q 557 630 602 674 q 660 730 669 730 q 674 730 675 729 q 677 727 677 723 q 677 715 651 685 q 625 655 610 634 q 555 559 500 455 q 489 433 484 424 q 463 387 433 344 q 403 302 356 243 q 391 273 505 391 q 619 510 691 582 q 752 643 808 687 q 863 730 874 730 q 879 730 883 728 q 886 727 886 723 q 886 721 855 674 q 823 627 794 575 q 783 556 759 509 q 666 330 583 212 q 846 489 970 606 q 1094 722 1124 722 q 1129 722 1133 719 q 1137 715 1137 710 q 1137 704 1108 685 q 1079 667 1057 650 q 960 574 805 408 q 768 369 750 350 l 674 271 q 405 -9 385 -9 q 382 -9 380 -7 q 379 -4 379 0 q 379 7 422 63 q 466 118 501 174 q 507 183 596 341 q 685 500 775 622 q 679 537 545 396 q 412 256 374 220 q 271 120 195 55 q 119 -9 106 -9 q 103 -9 100 -6 q 97 -4 97 0 q 97 7 138 49 q 180 90 211 126 q 251 172 304 251 q 356 331 473 527 z"},"A":{"x_min":0,"x_max":757,"ha":757,"o":"m 481 37 q 505 92 517 145 q 529 198 529 249 q 529 262 529 269 q 528 275 528 281 l 497 252 q 457 215 413 177 q 369 140 322 103 q 352 75 391 59 q 431 42 481 37 z m 303 123 q 351 158 394 194 q 437 230 476 267 l 525 313 q 514 391 474 434 q 434 478 375 478 q 311 478 269 431 q 226 383 226 311 q 226 263 245 216 q 265 169 303 123 z m 465 17 q 419 23 380 41 q 340 58 303 89 q 235 40 188 19 q 142 -2 102 -2 q 54 -2 25 24 q -4 50 -4 93 q -4 126 15 149 q 35 171 63 171 q 83 171 95 159 q 107 146 107 127 q 107 110 97 101 q 86 91 69 91 q 61 91 48 94 q 36 97 32 97 q 26 97 24 94 q 21 91 21 84 q 21 58 43 41 q 66 24 103 24 q 140 24 185 45 q 230 66 285 109 q 242 161 220 215 q 199 269 199 327 q 199 417 244 474 q 290 531 359 531 q 427 531 478 477 q 528 424 546 331 l 711 482 q 864 622 949 675 q 1033 727 1098 727 q 1106 727 1112 724 q 1118 720 1118 716 q 1118 713 1063 654 q 1008 595 959 528 q 945 509 916 469 q 713 191 555 39 q 605 42 647 56 q 689 71 729 101 q 748 115 770 134 q 792 153 796 153 q 800 153 802 151 q 804 148 804 144 q 804 138 792 127 q 781 116 746 88 q 699 51 647 33 q 595 16 528 15 l 517 3 q 513 -2 506 -4 q 500 -7 490 -7 l 468 -7 q 462 -7 460 -5 q 457 -4 457 -2 q 457 -1 458 1 q 458 3 460 6 z m 550 300 q 551 280 552 271 q 552 261 552 253 q 552 209 545 167 q 539 125 525 85 q 631 205 746 351 q 862 498 881 519 q 922 564 966 608 q 1011 651 1059 693 q 1010 690 923 630 q 835 571 721 462 z"},"f":{"x_min":0,"x_max":255,"ha":255,"o":"m 323 376 q 459 458 539 524 q 618 591 618 623 q 618 632 615 635 q 611 639 603 639 q 567 639 501 578 q 436 517 323 376 z m 2 33 q -2 41 -5 48 q -7 55 -7 61 q -7 73 0 79 q 6 86 17 86 q 23 86 28 85 q 33 83 37 81 l 126 201 q 96 178 60 148 q 25 118 19 118 q 17 118 15 121 q 13 123 13 127 q 13 138 132 229 l 171 259 q 315 451 431 559 q 546 668 605 668 q 622 668 632 659 q 641 649 641 632 q 641 588 556 514 q 471 439 271 309 l 84 61 q 93 59 101 57 q 109 56 116 56 q 142 56 171 68 q 199 80 234 105 q 255 120 276 141 q 296 161 300 161 q 302 161 304 158 q 306 155 306 152 q 306 143 286 123 q 266 103 232 78 q 187 45 146 30 q 105 15 65 15 l 50 15 l -160 -268 q -166 -276 -171 -279 q -176 -282 -184 -282 l -206 -282 q -213 -282 -217 -279 q -221 -276 -221 -271 q -221 -269 -220 -266 q -219 -264 -217 -261 z"},"Q":{"x_min":0,"x_max":706,"ha":706,"o":"m 275 25 q 228 8 186 0 q 144 -9 108 -9 q 52 -9 22 5 q -7 20 -7 47 q -7 68 12 79 q 31 90 68 90 q 103 90 152 81 q 201 71 269 51 q 528 161 681 302 q 833 443 833 568 q 833 633 779 672 q 725 711 633 711 q 553 711 478 681 q 402 651 332 591 q 280 546 249 490 q 218 435 218 387 q 218 339 247 311 q 277 283 328 283 q 391 283 456 334 q 521 385 569 475 q 586 506 598 546 q 610 585 619 585 q 623 585 624 580 q 626 575 626 564 q 626 535 613 493 q 600 450 578 410 q 542 343 475 301 q 408 259 337 259 q 271 259 233 293 q 194 328 194 387 q 194 428 212 472 q 230 516 265 558 q 334 641 431 687 q 529 733 633 733 q 749 733 813 679 q 878 626 878 531 q 878 397 740 277 q 602 157 311 40 q 348 26 383 20 q 418 13 450 13 q 507 13 562 34 q 617 54 675 98 q 695 113 718 133 q 741 153 745 153 q 749 153 751 150 q 753 148 753 144 q 753 135 684 80 l 676 73 q 626 34 568 12 q 509 -9 451 -9 q 416 -9 372 0 q 329 8 275 25 z m 236 37 l 227 39 q 122 64 61 64 q 42 64 30 58 q 18 53 18 44 q 18 29 41 22 q 63 15 110 15 q 137 15 168 21 q 200 26 236 37 z"},"w":{"x_min":0,"x_max":611,"ha":611,"o":"m 160 161 q 115 122 84 84 q 54 46 54 33 q 54 27 58 23 q 62 20 69 20 q 93 20 138 46 q 184 71 240 116 q 293 159 340 209 q 387 259 392 259 q 418 259 432 256 q 446 252 446 247 q 446 244 415 216 q 384 188 357 159 q 326 125 308 93 q 289 60 289 42 q 289 31 294 26 q 299 21 310 21 q 336 21 384 47 q 431 74 483 119 q 476 131 472 141 q 469 151 469 160 q 469 195 497 225 q 524 255 558 255 q 572 255 580 248 q 588 240 588 228 q 588 212 573 189 q 559 166 518 121 q 525 116 534 114 q 542 111 553 111 q 589 111 619 131 q 649 152 650 152 q 654 152 656 150 q 659 147 659 144 q 659 131 624 110 q 588 90 550 90 q 537 90 524 93 q 511 96 499 102 q 438 50 387 23 q 336 -5 301 -5 q 273 -5 259 7 q 245 20 245 43 q 245 56 248 71 q 251 86 257 104 q 200 53 147 24 q 95 -5 59 -5 q 37 -5 23 7 q 10 19 10 38 q 10 63 34 99 q 59 134 109 180 q 82 165 54 143 q 26 122 22 122 q 19 122 17 124 q 15 126 15 130 q 15 134 18 137 q 21 141 27 146 l 64 174 q 118 215 154 237 q 190 258 206 258 q 228 258 241 255 q 255 252 255 247 q 255 246 252 242 q 250 239 246 236 z m 498 135 q 532 173 548 195 q 563 217 563 228 q 563 230 561 231 q 559 233 555 233 q 534 233 513 209 q 492 185 492 159 q 492 155 494 148 q 495 142 498 135 z"},"-":{"x_min":0,"x_max":231,"ha":231,"o":"m 88 155 l 214 155 l 183 113 l 58 113 z"},"E":{"x_min":0,"x_max":648,"ha":648,"o":"m 406 418 q 421 400 438 392 q 455 383 473 383 q 485 383 492 388 q 500 394 500 402 q 500 412 489 418 q 479 424 460 424 q 447 424 434 422 q 421 421 406 418 z m 371 437 q 369 445 368 455 q 367 464 367 473 q 367 509 383 545 q 399 581 428 609 q 487 667 564 700 q 642 734 716 734 q 771 734 802 708 q 832 682 832 634 q 832 591 803 550 q 775 509 723 478 q 688 458 649 445 q 610 432 589 432 q 586 432 583 436 q 580 439 580 443 q 580 451 607 461 q 634 470 652 480 q 718 517 761 566 q 803 615 803 652 q 803 678 783 692 q 763 707 728 707 q 679 707 610 669 q 542 631 480 568 q 438 526 419 496 q 399 466 399 446 l 399 444 q 409 445 419 446 q 429 447 438 447 q 484 447 504 436 q 525 426 525 402 q 525 383 510 372 q 495 361 469 361 q 445 361 423 373 q 401 385 382 410 q 338 393 293 360 q 249 328 204 279 q 161 232 139 191 q 118 150 118 115 q 118 73 150 45 q 182 17 229 17 q 274 17 325 41 q 375 65 438 118 q 478 151 496 175 q 515 198 515 214 q 515 227 505 235 q 495 242 477 242 q 441 242 396 221 q 351 200 305 161 q 285 145 264 121 q 243 97 235 97 q 231 97 229 100 q 227 103 227 108 q 227 115 245 135 q 262 155 290 179 q 335 218 386 241 q 437 264 474 264 q 505 264 523 247 q 541 230 541 200 q 541 176 529 150 q 518 125 495 100 q 447 47 381 18 q 316 -12 247 -12 q 170 -12 125 32 q 81 77 81 153 q 81 255 159 333 q 237 410 371 437 z"},"s":{"x_min":0,"x_max":289,"ha":289,"o":"m 13 34 q 16 24 26 19 q 36 14 54 14 q 103 14 129 66 q 156 118 161 222 q 114 196 74 162 q 34 128 30 128 q 26 128 24 130 q 22 132 22 135 q 22 145 62 177 q 102 208 166 248 q 169 276 182 294 q 195 311 211 311 q 219 311 223 306 q 228 301 228 292 q 228 278 217 264 q 207 250 188 240 q 198 225 203 205 q 208 185 208 160 q 208 120 195 90 q 183 60 158 41 q 221 66 274 109 q 327 153 328 153 q 332 153 334 150 q 336 148 336 144 q 336 137 315 117 q 293 97 260 74 q 206 36 153 16 q 100 -5 58 -5 q 27 -5 7 9 q -12 23 -12 46 q -12 64 -1 75 q 10 87 27 87 q 39 87 47 80 q 54 72 54 61 q 54 48 45 41 q 37 33 22 33 q 18 33 16 33 q 14 34 13 34 z"},">":{"x_min":0,"x_max":833,"ha":833,"o":"m 129 549 l 704 313 l 704 283 l 129 48 l 129 91 l 639 298 l 129 505 z"},"l":{"x_min":0,"x_max":297,"ha":297,"o":"m 125 201 q 93 178 58 148 q 23 118 18 118 q 15 118 14 120 q 12 123 12 127 q 12 135 49 166 q 85 196 170 259 l 463 588 q 469 595 474 598 q 479 600 487 600 q 501 600 510 596 q 519 593 519 587 q 519 583 517 580 q 516 577 510 571 l 171 175 q 134 132 115 98 q 95 64 95 44 q 95 32 100 26 q 104 21 114 21 q 136 21 168 36 q 199 50 244 82 q 273 103 303 128 q 333 153 336 153 q 340 153 342 151 q 344 148 344 144 q 344 135 289 91 l 287 89 q 232 45 183 21 q 134 -4 103 -4 q 81 -4 68 8 q 55 21 55 42 q 55 70 72 109 q 89 148 125 201 z"},"8":{"x_min":0,"x_max":426,"ha":426,"o":"m 351 308 q 424 320 476 364 q 527 409 527 452 q 527 471 515 481 q 503 491 481 491 q 428 491 394 444 q 360 396 351 308 z m 286 273 q 244 263 210 247 q 177 230 150 208 q 105 171 80 133 q 54 95 54 67 q 54 44 69 31 q 84 17 109 17 q 180 17 229 86 q 277 155 286 273 z m 291 297 q 313 402 362 458 q 410 515 478 515 q 516 515 538 496 q 559 478 559 445 q 559 390 504 348 q 449 307 347 284 q 331 156 264 75 q 197 -6 112 -6 q 69 -6 43 19 q 18 43 18 86 q 18 165 87 218 q 156 271 291 297 z"},"\\":{"x_min":0,"x_max":500,"ha":500,"o":"m 441 -93 l 253 731 l 286 731 l 474 -93 z"},"e":{"x_min":0,"x_max":279,"ha":279,"o":"m 63 87 q 59 78 56 69 q 54 60 54 53 q 54 38 64 29 q 74 20 92 20 q 123 20 167 43 q 211 65 262 107 q 275 118 294 135 q 313 153 318 153 q 322 153 324 151 q 326 148 326 144 q 326 139 313 125 q 300 112 267 84 q 218 42 169 19 q 121 -4 84 -4 q 49 -4 28 18 q 7 39 7 76 q 7 109 28 142 q 49 175 89 205 q 124 230 155 243 q 186 256 212 256 q 235 256 245 248 q 255 241 255 222 q 255 185 200 144 q 145 104 63 87 z m 77 116 q 143 130 188 160 q 233 190 233 217 q 233 226 229 230 q 226 234 218 234 q 193 234 158 204 q 122 174 77 116 z"},"b":{"x_min":0,"x_max":401,"ha":401,"o":"m 290 137 q 325 176 340 198 q 355 219 355 229 q 355 231 353 232 q 351 234 347 234 q 326 234 305 210 q 284 186 284 160 q 284 156 286 150 q 287 144 290 137 z m 125 202 q 93 179 58 149 q 23 119 18 119 q 15 119 14 121 q 12 124 12 128 q 12 136 49 167 q 85 197 170 260 l 451 589 q 458 596 463 599 q 468 601 476 601 q 492 601 502 597 q 512 594 512 588 q 512 583 505 574 q 503 573 503 572 l 192 210 q 130 138 109 103 q 87 68 87 44 q 87 37 94 32 q 100 27 109 27 q 134 27 177 51 q 220 76 273 120 q 266 132 262 142 q 259 153 259 162 q 259 197 286 227 q 313 256 347 256 q 361 256 369 249 q 377 241 377 229 q 377 213 362 189 q 347 166 308 122 q 315 117 324 114 q 332 112 342 112 q 378 112 409 132 q 439 153 440 153 q 444 153 446 151 q 448 149 448 146 q 448 133 413 112 q 378 91 340 91 q 327 91 314 94 q 301 97 289 103 q 227 50 177 24 q 127 -3 91 -3 q 69 -3 56 10 q 43 22 43 43 q 43 76 63 115 q 83 154 125 202 z"},"%":{"x_min":0,"x_max":611,"ha":611,"o":"m 421 50 q 421 36 428 26 q 436 16 447 16 q 467 16 489 31 q 510 46 530 74 q 550 103 563 137 q 575 171 575 197 q 575 212 568 222 q 561 232 551 232 q 536 232 518 218 q 500 204 477 174 q 451 140 436 106 q 421 73 421 50 z m 446 -7 q 419 -7 404 13 q 388 32 388 66 q 388 108 404 143 q 419 179 451 211 q 473 233 498 245 q 522 258 544 258 q 569 258 582 242 q 595 227 595 197 q 595 165 583 128 q 570 91 548 60 q 526 29 499 11 q 471 -7 446 -7 z m 186 300 q 186 288 195 279 q 204 270 215 270 q 232 270 254 286 q 276 301 295 328 q 315 357 327 391 q 339 425 339 451 q 339 467 333 476 q 326 486 316 486 q 301 486 282 471 q 264 457 242 429 q 215 393 200 360 q 186 327 186 300 z m 590 469 q 557 454 526 446 q 495 439 464 439 q 439 439 414 444 q 388 450 362 460 q 355 369 311 308 q 267 247 210 247 q 184 247 168 266 q 153 284 153 316 q 153 354 167 390 q 181 426 207 456 q 230 482 259 497 q 287 512 314 512 q 328 512 339 504 q 350 497 356 483 q 384 470 410 463 q 437 457 463 457 q 500 457 537 469 q 574 481 612 505 q 630 517 651 531 q 671 546 674 546 q 678 546 681 543 q 683 541 683 537 q 683 535 681 533 q 679 530 675 526 l 55 -85 q 51 -89 46 -92 q 42 -94 38 -94 l 37 -94 l 25 -90 q 21 -88 18 -87 q 16 -85 16 -84 q 16 -83 19 -79 q 21 -76 25 -72 z"},"m":{"x_min":0,"x_max":593,"ha":593,"o":"m 40 0 q 36 -1 29 -2 q 22 -3 6 -3 q -11 -3 -16 -1 q -22 0 -22 4 q -22 13 21 52 q 50 79 68 97 l 80 108 q 178 204 178 218 q 178 222 176 224 q 175 226 173 226 q 159 226 138 213 q 117 200 78 166 q 68 158 55 145 q 37 128 31 128 q 27 128 25 130 q 22 133 22 136 q 22 143 58 175 q 64 181 68 184 q 112 222 141 239 q 170 256 192 256 q 208 256 216 246 q 224 235 224 215 q 224 211 224 207 q 223 202 222 192 q 289 234 313 245 q 337 256 353 256 q 366 256 374 245 q 381 235 381 215 q 381 211 381 207 q 380 202 379 192 q 439 230 466 243 q 493 256 509 256 q 526 256 536 246 q 546 237 546 220 q 546 190 484 130 l 483 129 q 472 119 454 102 q 394 46 394 34 q 394 29 398 25 q 403 22 410 22 q 432 22 473 43 q 515 63 562 99 q 582 114 604 133 q 627 153 631 153 q 634 153 636 151 q 638 148 638 144 q 638 135 584 91 l 581 89 q 528 47 478 21 q 428 -4 402 -4 q 380 -4 367 8 q 353 21 353 40 q 353 63 371 91 q 389 119 422 148 q 433 157 451 173 q 497 211 497 218 q 497 221 493 224 q 490 226 485 226 q 458 226 379 165 q 301 103 199 0 q 194 -1 188 -2 q 181 -3 165 -3 q 148 -3 142 -1 q 136 0 136 4 q 136 13 179 52 q 195 68 205 77 q 275 143 306 176 q 337 208 337 215 q 337 219 333 223 q 330 226 326 226 q 299 226 219 163 q 138 101 40 0 z"},"#":{"x_min":0,"x_max":769,"ha":769,"o":"m 342 428 l 289 280 l 436 280 l 488 428 z m 395 710 l 441 710 l 356 467 l 502 467 l 588 710 l 635 710 l 549 467 l 706 467 l 693 428 l 535 428 l 483 280 l 653 280 l 639 241 l 469 241 l 384 0 l 337 0 l 422 241 l 275 241 l 190 0 l 144 0 l 229 241 l 63 241 l 78 280 l 243 280 l 295 428 l 115 428 l 129 467 l 309 467 z"},",":{"x_min":0,"x_max":241,"ha":241,"o":"m 73 0 l 70 0 q 58 0 51 7 q 44 14 44 27 q 44 47 59 64 q 73 81 91 81 q 106 81 115 71 q 125 61 125 45 q 125 29 116 13 q 107 -3 90 -19 q 73 -34 53 -44 q 32 -54 22 -54 q 16 -54 13 -52 q 10 -51 10 -47 q 10 -40 33 -28 q 56 -16 73 0 z"},"n":{"x_min":0,"x_max":431,"ha":431,"o":"m 40 0 q 36 -1 29 -2 q 22 -3 6 -3 q -11 -3 -16 -1 q -22 0 -22 4 q -22 13 21 52 q 50 79 68 97 l 80 108 q 178 204 178 218 q 178 222 176 224 q 175 226 173 226 q 159 226 138 213 q 117 200 78 166 q 68 158 55 145 q 37 128 31 128 q 27 128 25 130 q 22 133 22 136 q 22 143 57 174 q 64 180 68 184 q 109 220 140 238 q 170 256 192 256 q 208 256 216 246 q 224 235 224 215 q 224 211 224 207 q 223 202 222 192 q 271 226 300 240 q 330 255 351 255 q 367 255 376 246 q 385 236 385 220 q 385 203 373 184 q 361 166 322 129 q 312 119 292 102 q 233 46 233 34 q 233 29 237 25 q 242 22 249 22 q 271 22 312 43 q 353 63 400 99 q 420 114 442 133 q 465 153 469 153 q 473 153 475 151 q 477 148 477 144 q 477 135 423 91 l 420 89 q 367 47 317 21 q 268 -4 241 -4 q 219 -4 206 8 q 192 21 192 40 q 192 63 210 91 q 228 119 261 148 q 272 157 291 173 q 336 211 336 218 q 336 221 333 224 q 329 226 324 226 q 296 226 216 163 q 135 100 40 0 z"},"h":{"x_min":0,"x_max":393,"ha":393,"o":"m 16 0 q 11 -1 5 -2 q -2 -3 -18 -3 q -35 -3 -41 -1 q -47 0 -47 4 q -47 9 13 73 q 73 138 127 203 q 96 180 60 149 q 24 118 18 118 q 15 118 14 120 q 12 123 12 127 q 12 136 57 173 q 101 209 177 262 l 453 588 q 459 595 464 598 q 469 600 477 600 q 491 600 500 596 q 510 593 510 587 q 510 581 503 574 q 502 572 501 571 l 172 183 q 222 220 256 238 q 290 255 313 255 q 329 255 338 246 q 347 236 347 220 q 347 203 335 184 q 323 166 284 129 q 273 119 254 102 q 195 46 195 34 q 195 29 199 25 q 204 22 211 22 q 232 22 274 43 q 315 63 362 99 q 382 114 404 133 q 427 153 431 153 q 435 153 437 150 q 439 148 439 144 q 439 135 384 91 l 382 89 q 329 47 279 21 q 229 -4 203 -4 q 181 -4 167 8 q 154 21 154 40 q 154 63 172 91 q 189 119 223 148 q 234 157 252 173 q 298 211 298 218 q 298 221 294 224 q 291 226 286 226 q 255 226 175 162 q 95 98 16 0 z"},"z":{"x_min":0,"x_max":329,"ha":329,"o":"m 62 39 q 58 46 52 51 q 45 55 37 55 q 25 55 16 48 q 7 42 7 33 q 7 27 12 23 q 17 19 24 19 q 33 19 42 24 q 52 29 62 39 z m 31 -44 q -78 -92 -145 -149 q -213 -207 -213 -247 q -213 -259 -207 -265 q -202 -270 -189 -270 q -167 -270 -109 -211 q -51 -152 31 -44 z m 82 55 q 140 105 171 146 q 203 186 203 208 q 203 215 200 218 q 196 221 187 221 q 171 221 147 209 q 122 196 89 172 q 72 160 53 143 q 34 126 29 126 q 25 126 24 128 q 22 130 22 134 q 22 142 38 157 q 54 173 82 193 q 124 223 160 240 q 196 256 220 256 q 240 256 250 245 q 261 235 261 215 q 261 176 219 128 q 176 80 95 28 q 96 24 97 19 q 98 14 98 10 q 98 9 98 5 q 97 2 97 0 q 153 16 203 40 q 252 64 297 98 q 317 113 340 133 q 364 153 368 153 q 372 153 373 151 q 375 148 375 144 q 375 134 320 90 l 318 88 q 266 46 209 18 q 153 -10 92 -25 q 78 -71 38 -121 q -1 -171 -65 -224 q -105 -257 -137 -273 q -168 -290 -191 -290 q -212 -290 -223 -278 q -235 -267 -235 -245 q -235 -195 -157 -131 q -80 -67 47 -16 l 59 12 q 47 6 38 4 q 29 1 22 1 q 7 1 -2 9 q -11 18 -11 31 q -11 48 3 59 q 17 70 38 70 q 49 70 60 66 q 70 63 82 55 z"},"B":{"x_min":0,"x_max":954,"ha":954,"o":"m 823 378 q 813 381 803 382 q 793 384 782 384 q 759 384 744 376 q 729 368 729 356 q 729 350 735 345 q 742 341 750 341 q 765 341 782 349 q 799 358 823 378 z m 908 636 q 829 571 703 388 q 661 327 639 296 q 532 146 430 71 q 328 -5 234 -5 q 172 -5 132 28 q 92 61 92 111 q 92 141 109 159 q 125 178 152 178 q 172 178 184 167 q 196 155 196 136 q 196 118 184 108 q 172 97 152 97 q 148 97 140 99 q 132 100 128 100 q 125 100 124 98 q 123 96 123 91 q 123 66 153 44 q 183 21 219 21 q 284 21 373 97 q 461 173 609 359 l 612 363 q 777 572 889 660 q 859 685 823 697 q 787 708 739 708 q 660 708 579 682 q 499 655 419 603 q 331 545 279 477 q 227 409 227 351 q 227 315 248 293 q 270 271 304 271 q 361 271 439 325 q 517 379 579 466 q 599 494 612 528 q 625 562 631 562 q 635 562 638 558 q 640 554 640 548 q 640 522 617 472 q 594 422 558 376 q 509 314 442 278 q 375 242 311 242 q 261 242 231 271 q 201 300 201 349 q 201 404 240 465 q 278 525 350 584 q 439 656 537 693 q 635 731 734 731 q 790 731 833 718 q 875 704 910 676 q 937 694 957 705 q 977 715 985 715 q 991 715 994 712 q 997 710 997 705 q 997 699 974 685 q 951 670 933 655 q 953 626 963 599 q 972 572 972 545 q 972 498 947 456 q 921 414 868 375 q 883 356 891 335 q 898 314 898 291 q 898 241 870 188 q 842 136 787 84 q 737 37 683 12 q 629 -13 577 -13 q 543 -13 522 6 q 501 26 501 57 q 501 89 526 127 q 551 165 598 205 q 634 235 670 255 q 707 275 718 275 q 723 275 727 272 q 730 270 730 265 q 730 257 702 242 q 680 230 666 221 q 601 180 563 135 q 525 91 525 57 q 525 36 539 24 q 552 12 576 12 q 605 12 641 35 q 676 58 723 107 q 788 174 822 232 q 857 289 857 328 q 857 339 854 347 q 852 355 847 362 q 812 337 789 327 q 767 317 750 317 q 729 317 716 327 q 703 337 703 353 q 703 376 726 391 q 749 405 786 405 q 798 405 811 403 q 825 401 841 397 q 880 438 902 488 q 924 538 924 586 q 924 600 920 612 q 917 624 908 636 z"},"K":{"x_min":0,"x_max":767,"ha":767,"o":"m 576 497 q 545 477 519 467 q 494 457 470 457 q 441 457 426 470 q 410 483 410 507 q 410 540 471 585 q 479 592 484 595 q 503 608 510 618 q 518 627 518 636 q 518 643 512 646 q 507 650 497 650 q 464 650 414 626 q 364 602 316 562 q 305 553 289 535 q 272 518 266 518 q 264 518 261 521 q 258 523 258 526 q 258 535 272 551 q 286 567 313 587 q 365 627 417 651 q 470 674 507 674 q 536 674 551 662 q 566 649 566 626 q 566 612 558 599 q 550 585 534 572 q 525 564 508 552 q 455 513 455 492 q 455 487 461 484 q 466 481 477 481 q 503 481 542 503 q 581 525 675 598 q 703 620 739 652 q 774 683 781 683 q 786 683 788 681 q 791 679 791 676 q 791 669 730 607 q 669 545 618 481 q 571 420 490 307 q 410 193 372 153 q 296 72 224 31 q 151 -9 81 -9 q 23 -9 -17 25 q -56 59 -56 107 q -56 137 -39 155 q -22 174 4 174 q 24 174 36 162 q 48 150 48 131 q 48 113 36 102 q 24 92 4 92 q 0 92 -7 94 q -15 95 -19 95 q -22 95 -24 93 q -25 91 -25 86 q -25 61 5 39 q 35 17 71 17 q 107 17 150 43 q 193 70 264 139 q 304 178 407 301 q 510 423 576 497 z m 652 324 q 639 319 626 317 q 613 315 600 315 q 576 315 562 324 q 548 333 548 348 q 548 363 559 372 q 570 380 589 380 q 608 380 627 372 q 646 364 661 348 q 731 372 851 493 q 913 556 949 587 q 1011 641 1066 673 q 1122 705 1149 705 q 1155 705 1159 703 q 1163 700 1163 696 q 1163 688 1134 677 q 1104 666 1084 652 q 1056 632 987 565 q 943 521 917 497 q 835 420 781 385 q 728 349 672 328 q 675 316 677 306 q 678 295 678 287 q 678 259 663 229 q 648 198 609 151 q 594 133 566 106 q 524 64 524 43 q 524 29 534 21 q 544 12 561 12 q 588 12 626 30 q 664 47 714 82 q 744 103 773 128 q 803 153 806 153 q 810 153 812 150 q 814 148 814 144 q 814 137 794 119 q 774 101 738 74 q 680 31 637 11 q 593 -9 559 -9 q 529 -9 510 9 q 492 27 492 57 q 492 85 509 118 q 526 152 557 185 q 571 200 597 226 q 654 282 654 308 q 654 312 652 322 q 652 323 652 324 z m 639 339 q 626 350 613 355 q 601 360 587 360 q 579 360 574 357 q 569 354 569 349 q 569 342 577 338 q 584 334 598 334 q 609 334 619 335 q 629 336 639 339 z"},"R":{"x_min":0,"x_max":821,"ha":821,"o":"m 711 278 q 707 277 703 277 q 699 277 692 277 q 668 277 655 286 q 642 295 642 312 q 642 322 650 329 q 659 337 670 337 q 686 337 698 331 q 711 324 722 311 q 750 312 780 331 q 811 351 844 387 q 886 434 909 480 q 931 526 931 565 q 931 590 923 611 q 914 631 896 649 q 868 626 837 593 q 807 561 765 506 q 716 443 646 339 q 575 235 546 202 q 453 95 357 42 q 261 -10 159 -10 q 82 -10 36 19 q -9 48 -9 96 q -9 125 10 144 q 29 164 56 164 q 77 164 91 151 q 105 137 105 118 q 105 102 95 92 q 84 83 66 83 q 58 83 44 89 q 30 94 23 94 q 20 94 18 92 q 16 89 16 85 q 16 57 54 36 q 91 14 143 14 q 186 14 225 25 q 265 35 301 57 q 341 81 391 132 q 442 184 527 288 q 550 317 595 374 q 769 592 872 666 q 833 688 790 700 q 746 711 696 711 q 602 711 507 678 q 411 646 330 586 q 264 537 228 483 q 192 430 192 380 q 192 342 220 317 q 248 292 291 292 q 350 292 419 339 q 489 386 549 468 q 578 508 598 553 q 618 599 624 599 q 627 599 628 596 q 630 593 630 586 q 630 562 616 523 q 603 483 582 449 q 528 362 455 315 q 383 269 300 269 q 241 269 204 300 q 168 331 168 381 q 168 435 206 493 q 244 550 315 603 q 400 666 500 699 q 599 733 698 733 q 752 733 800 720 q 849 707 893 681 q 927 701 941 707 q 955 713 962 713 q 966 713 969 711 q 972 709 972 706 q 972 698 945 682 q 928 671 917 664 q 946 635 961 604 q 975 573 975 540 q 975 445 912 376 q 850 306 740 283 q 745 270 748 258 q 750 246 750 234 q 750 209 739 184 q 727 159 702 129 q 683 106 650 73 q 618 40 618 30 q 618 24 622 21 q 626 18 633 18 q 656 18 698 39 q 739 61 789 98 q 810 113 833 133 q 855 153 859 153 q 863 153 865 151 q 867 148 867 144 q 867 138 854 125 q 841 112 809 87 q 755 44 707 20 q 658 -5 628 -5 q 600 -5 586 7 q 572 20 572 45 q 572 81 631 142 q 651 162 662 174 q 692 207 703 225 q 714 244 714 260 q 714 265 713 269 q 712 273 711 278 z"},"T":{"x_min":0,"x_max":711,"ha":711,"o":"m 202 17 q 289 17 390 106 q 491 195 638 403 q 723 524 779 587 q 834 651 854 651 q 858 651 860 649 q 862 647 862 644 q 862 643 825 593 q 789 544 754 487 q 744 470 724 438 q 577 191 474 102 q 411 47 345 19 q 279 -9 214 -9 q 143 -9 101 23 q 59 55 59 107 q 59 137 76 156 q 93 175 119 175 q 139 175 151 163 q 163 151 163 132 q 163 114 151 103 q 139 93 119 93 q 116 93 108 94 q 100 96 96 96 q 93 96 92 94 q 90 92 90 87 q 90 60 123 38 q 155 17 202 17 z m 641 600 q 641 587 627 557 q 614 527 593 498 q 547 436 491 403 q 435 370 374 370 q 316 370 282 404 q 247 438 247 495 q 247 599 348 665 q 448 731 612 731 q 687 731 839 708 l 845 707 q 863 704 895 699 q 1020 680 1053 680 q 1089 680 1129 691 q 1137 693 1139 693 q 1144 693 1147 690 q 1150 688 1150 685 q 1150 671 1115 657 q 1080 643 1033 643 q 1013 643 991 646 q 969 648 948 653 q 937 656 915 661 q 723 708 629 708 q 557 708 498 691 q 439 673 394 638 q 337 594 308 555 q 280 516 280 481 q 280 444 308 420 q 335 396 379 396 q 436 396 490 432 q 543 468 589 538 q 601 557 613 584 q 625 611 632 611 q 636 611 639 608 q 641 605 641 600 z"},"P":{"x_min":0,"x_max":810,"ha":810,"o":"m 667 296 q 673 295 678 294 q 683 294 687 294 q 718 294 754 310 q 791 327 825 357 q 881 406 912 460 q 944 514 944 560 q 944 578 938 593 q 933 608 921 624 q 883 598 822 518 q 760 439 667 296 z m 647 273 q 554 133 445 62 q 335 -9 211 -9 q 128 -9 80 23 q 32 55 32 110 q 32 140 49 159 q 66 178 92 178 q 112 178 125 166 q 137 153 137 135 q 137 117 125 107 q 113 96 93 96 q 90 96 82 98 q 73 99 69 99 q 66 99 65 97 q 64 95 64 90 q 64 61 102 39 q 139 17 196 17 q 287 17 375 80 q 463 142 590 304 q 580 315 575 327 q 570 339 570 354 q 570 384 593 409 q 616 433 641 433 q 648 433 653 430 q 657 427 657 422 q 657 414 634 406 q 627 403 624 402 q 609 396 600 383 q 592 371 592 354 q 592 345 596 338 q 600 330 606 325 l 620 342 q 807 575 900 646 q 856 678 806 693 q 755 709 694 709 q 600 709 505 677 q 410 644 328 584 q 261 535 226 481 q 190 428 190 378 q 190 340 218 316 q 245 291 289 291 q 348 291 418 338 q 487 385 547 466 q 576 506 596 552 q 616 598 622 598 q 625 598 626 595 q 627 592 627 584 q 627 560 614 520 q 601 480 580 447 q 526 360 453 313 q 380 267 297 267 q 238 267 202 298 q 166 329 166 379 q 166 433 204 491 q 242 548 313 601 q 398 664 497 697 q 597 731 696 731 q 762 731 818 713 q 874 694 922 657 q 951 678 974 690 q 998 703 1005 703 q 1011 703 1014 701 q 1017 699 1017 696 q 1017 688 988 672 q 959 656 938 639 q 959 618 970 588 q 981 559 981 521 q 981 464 956 415 q 930 367 879 327 q 842 298 797 283 q 751 267 706 267 q 694 267 679 269 q 664 270 647 273 z"},"|":{"x_min":0,"x_max":500,"ha":500,"o":"m 228 764 l 272 764 l 272 -236 l 228 -236 z"},"t":{"x_min":0,"x_max":289,"ha":289,"o":"m 126 201 q 96 178 60 148 q 25 118 19 118 q 17 118 15 121 q 13 123 13 127 q 13 138 132 229 l 171 259 l 214 306 l 128 306 l 144 323 l 231 323 l 322 437 q 327 443 333 446 q 339 449 348 449 q 364 449 374 445 q 384 440 384 434 q 384 431 383 428 q 382 425 379 421 l 295 323 l 394 323 l 378 306 l 282 306 l 168 175 q 128 129 109 97 q 90 65 90 44 q 90 33 94 27 q 98 22 107 22 q 131 22 172 42 q 212 63 262 101 q 281 115 302 134 q 322 153 327 153 q 331 153 333 150 q 335 148 335 144 q 335 138 325 128 q 314 117 275 86 q 221 42 174 19 q 127 -4 94 -4 q 72 -4 59 8 q 46 21 46 42 q 46 74 65 112 q 84 150 126 201 z"},"M":{"x_min":0,"x_max":751,"ha":751,"o":"m 594 512 l 267 186 l 261 181 q 75 -6 13 -6 q -23 -6 -44 15 q -64 35 -64 72 q -64 108 -40 134 q -16 159 18 159 q 41 159 54 147 q 67 135 67 114 q 67 95 56 83 q 44 71 26 71 q 13 71 -4 79 q -21 88 -26 88 q -32 88 -36 81 q -40 74 -40 63 q -40 42 -26 29 q -11 16 12 16 q 36 16 62 31 q 87 45 119 77 l 744 697 q 748 700 753 706 q 779 731 791 731 q 795 731 796 730 q 798 729 798 727 q 798 721 793 712 q 789 703 778 688 l 319 79 q 318 78 317 77 q 306 62 306 55 q 306 52 307 51 q 308 50 311 50 q 316 50 321 52 q 326 55 334 62 l 972 684 q 974 686 979 690 q 1005 717 1018 717 q 1022 717 1023 716 q 1025 715 1025 713 q 1025 707 1021 698 q 1017 690 1005 675 l 654 227 q 599 157 566 104 q 533 51 533 35 q 533 27 540 22 q 547 16 557 16 q 579 16 624 39 q 669 62 720 99 q 739 113 762 133 q 786 153 790 153 q 793 153 796 150 q 798 148 798 144 q 798 135 745 93 l 739 88 q 679 41 630 16 q 581 -8 544 -8 q 514 -8 496 8 q 478 24 478 51 q 478 78 501 117 q 525 156 595 238 l 807 488 l 428 114 q 357 44 322 18 q 287 -8 266 -8 q 250 -8 242 1 q 234 10 234 28 q 234 52 252 86 q 271 119 311 167 z"},"g":{"x_min":0,"x_max":377,"ha":377,"o":"m 53 -40 q -53 -86 -115 -138 q -176 -189 -176 -231 q -176 -244 -170 -253 q -164 -261 -155 -261 q -137 -261 -114 -240 q -90 -220 -42 -160 z m 131 73 l 243 193 q 249 199 252 206 q 256 213 256 219 q 256 225 253 227 q 250 230 244 230 q 228 230 200 216 q 172 202 144 178 q 98 140 68 98 q 38 56 38 36 q 38 29 42 25 q 46 21 53 21 q 66 21 87 35 q 108 49 131 73 z m 135 -16 q 27 -151 -45 -217 q -117 -282 -156 -282 q -178 -282 -188 -270 q -199 -258 -199 -235 q -199 -181 -123 -117 q -47 -54 76 -9 l 95 16 q 78 8 62 4 q 47 0 32 0 q 14 0 3 14 q -7 27 -7 52 q -7 84 9 115 q 25 146 56 173 q 100 211 148 234 q 197 256 234 256 q 254 256 263 248 q 273 240 275 222 q 282 230 291 238 q 300 246 310 252 q 314 252 321 252 q 329 253 332 253 q 349 253 356 250 q 364 248 364 241 q 364 239 291 168 q 218 96 152 10 q 195 14 244 36 q 292 58 347 99 q 366 113 389 133 q 413 153 417 153 q 420 153 423 150 q 425 148 425 144 q 425 137 405 119 q 385 101 349 74 q 295 35 244 13 q 193 -8 135 -16 z"},"j":{"x_min":0,"x_max":220,"ha":220,"o":"m -9 -18 q -111 -64 -175 -125 q -239 -185 -239 -231 q -239 -244 -231 -251 q -223 -258 -208 -258 q -172 -258 -124 -199 q -75 -141 -9 -18 z m 12 21 q 45 79 73 122 q 100 166 126 203 q 94 179 59 150 q 25 120 20 120 q 18 120 15 123 q 13 125 13 129 q 13 141 60 179 q 107 217 175 258 q 179 258 184 259 q 189 259 195 259 q 212 259 224 255 q 236 251 236 246 q 236 245 185 181 q 134 117 88 44 q 153 70 206 112 q 260 155 260 155 q 264 155 266 153 q 268 150 268 146 q 268 131 208 88 q 149 45 69 11 q -19 -140 -85 -208 q -151 -277 -206 -277 q -235 -277 -250 -264 q -264 -250 -264 -224 q -264 -169 -190 -103 q -117 -37 12 21 z m 275 387 q 275 401 285 410 q 295 419 311 419 q 327 419 337 410 q 347 401 347 387 q 347 373 337 364 q 327 355 311 355 q 295 355 285 364 q 275 373 275 387 z"},"i":{"x_min":0,"x_max":248,"ha":248,"o":"m 306 386 q 306 400 316 408 q 325 417 341 417 q 357 417 366 408 q 376 400 376 386 q 376 372 366 363 q 356 354 341 354 q 325 354 315 363 q 306 372 306 386 z m 109 180 q 82 165 54 143 q 26 122 22 122 q 19 122 17 124 q 15 126 15 129 q 15 137 33 150 l 34 151 l 64 174 q 119 216 154 237 q 189 258 206 258 q 228 258 241 255 q 255 252 255 247 q 255 244 215 210 q 175 177 141 143 q 98 101 76 73 q 54 45 54 33 q 54 27 58 23 q 62 20 69 20 q 89 20 130 41 q 170 61 216 96 q 234 109 256 128 q 277 146 281 146 q 284 146 286 144 q 288 141 288 138 q 288 129 242 92 l 231 83 q 181 42 134 19 q 87 -4 57 -4 q 36 -4 22 8 q 9 20 9 38 q 9 63 34 98 q 59 133 109 180 z"},"y":{"x_min":0,"x_max":468,"ha":468,"o":"m 223 -16 q 117 -149 44 -216 q -29 -282 -67 -282 q -88 -282 -100 -269 q -112 -256 -112 -234 q -112 -181 -34 -117 q 44 -53 172 -5 l 193 30 q 168 13 144 5 q 120 -4 97 -4 q 75 -4 62 8 q 48 21 48 40 q 48 63 66 92 q 84 121 118 149 q 127 157 144 171 q 192 211 192 218 q 192 221 189 224 q 186 226 181 226 q 173 226 157 219 q 142 211 122 198 q 92 178 64 153 q 35 128 31 128 q 28 128 25 131 q 22 133 22 136 q 22 141 36 155 q 50 169 73 187 q 118 222 151 238 q 184 255 207 255 q 223 255 232 246 q 241 236 241 220 q 241 203 229 184 q 217 166 178 129 q 165 116 142 95 q 89 45 89 34 q 89 28 95 25 q 101 21 109 21 q 125 21 147 32 q 169 43 195 66 l 336 188 q 357 206 377 222 q 397 238 417 252 l 429 252 q 442 252 447 250 q 452 248 452 243 q 452 239 377 165 q 303 91 235 7 q 282 15 325 32 q 367 50 414 82 q 443 102 473 127 q 502 153 506 153 q 510 153 512 151 q 514 148 514 144 q 514 137 494 118 q 473 100 438 74 q 386 36 334 14 q 282 -7 223 -16 z m 150 -38 q 38 -87 -24 -139 q -87 -190 -87 -231 q -87 -244 -81 -253 q -74 -261 -65 -261 q -40 -261 12 -208 q 63 -155 150 -38 z"},"@":{"x_min":0,"x_max":986,"ha":986,"o":"m 583 168 q 554 115 515 89 q 477 62 428 62 q 372 62 336 107 q 301 152 301 224 q 301 276 325 329 q 349 381 391 423 q 423 455 460 472 q 498 490 534 490 q 575 490 602 465 q 630 439 641 392 l 669 482 l 728 482 l 646 187 l 645 184 q 636 151 636 134 q 636 108 650 94 q 663 80 687 80 q 710 80 740 94 q 769 108 795 133 q 842 177 868 241 q 895 305 895 375 q 895 517 800 603 q 705 689 548 689 q 462 689 388 661 q 314 633 256 579 q 189 517 155 433 q 121 349 121 246 q 121 161 148 99 q 175 38 235 -14 q 292 -64 366 -90 q 439 -116 522 -116 q 606 -116 684 -90 q 761 -64 826 -14 l 839 -29 q 768 -82 688 -109 q 608 -136 522 -136 q 429 -136 355 -114 q 281 -92 222 -46 q 148 10 111 88 q 73 167 73 262 q 73 361 115 447 q 156 533 237 600 q 301 653 379 681 q 456 708 544 708 q 712 708 813 617 q 914 526 914 374 q 914 298 886 230 q 857 162 806 115 q 777 88 746 75 q 715 61 683 61 q 636 61 611 88 q 586 115 583 168 z m 532 474 q 504 474 481 459 q 458 444 435 409 q 399 356 378 295 q 357 234 357 186 q 357 137 378 109 q 400 81 437 81 q 470 81 501 103 q 532 125 561 169 q 590 213 606 266 q 623 318 623 363 q 623 410 596 442 q 570 474 532 474 z"},".":{"x_min":0,"x_max":241,"ha":241,"o":"m 75 0 q 61 0 52 8 q 44 16 44 28 q 44 46 59 61 q 73 75 93 75 q 106 75 115 67 q 124 59 124 47 q 124 28 109 14 q 95 0 75 0 z"},"p":{"x_min":0,"x_max":399,"ha":399,"o":"m -9 -44 l -189 -279 q -195 -281 -202 -282 q -209 -283 -219 -283 q -233 -283 -239 -281 q -245 -279 -245 -275 q -245 -265 -174 -173 q -103 -81 121 195 l 46 136 q 40 131 37 129 q 34 128 31 128 q 28 128 25 131 q 22 133 22 136 q 22 143 75 184 q 128 225 170 261 q 189 277 219 305 q 272 354 290 354 q 296 354 300 352 q 303 351 303 347 q 303 341 261 291 q 219 241 184 190 q 229 222 264 238 q 299 255 320 255 q 336 255 345 246 q 354 236 354 220 q 354 203 342 184 q 330 166 291 129 q 280 119 261 102 q 202 46 202 34 q 202 29 207 25 q 211 22 218 22 q 239 22 281 43 q 322 63 369 99 q 389 114 411 133 q 434 153 438 153 q 441 153 444 150 q 446 148 446 144 q 446 135 391 91 l 389 89 q 336 47 286 21 q 236 -4 209 -4 q 188 -4 174 8 q 160 21 160 40 q 160 63 175 88 q 190 112 227 147 q 245 164 273 187 q 302 209 302 217 q 302 221 299 224 q 296 226 291 226 q 285 226 270 219 q 254 211 229 195 q 171 159 120 109 q 69 59 -9 -44 z"},"X":{"x_min":0,"x_max":838,"ha":838,"o":"m 579 196 q 474 91 386 41 q 298 -10 221 -10 q 158 -10 119 19 q 80 48 80 94 q 80 125 99 145 q 118 166 145 166 q 167 166 181 153 q 195 140 195 119 q 195 101 185 90 q 174 79 157 79 q 146 79 132 87 q 117 94 112 94 q 107 94 105 90 q 103 87 103 80 q 103 54 138 34 q 172 13 222 13 q 290 13 369 66 q 449 120 543 229 q 651 354 707 446 q 763 538 763 591 q 763 646 720 680 q 677 714 607 714 q 543 714 480 694 q 418 674 358 634 q 283 584 239 522 q 195 461 195 409 q 195 363 224 337 q 253 310 303 310 q 371 310 448 367 q 526 424 576 513 q 595 546 607 583 q 620 621 626 621 q 628 621 630 617 q 632 613 632 608 q 632 604 631 596 q 630 589 628 580 q 619 538 608 505 q 596 472 584 452 q 536 374 467 331 q 397 289 317 289 q 249 289 212 320 q 175 352 175 410 q 175 460 205 512 q 236 564 297 618 q 362 674 447 707 q 531 739 615 739 q 694 739 743 694 q 791 650 791 577 q 791 552 785 522 q 779 493 767 456 q 891 601 973 665 q 1056 728 1118 728 q 1154 728 1173 710 q 1192 692 1192 659 q 1192 632 1179 616 q 1167 600 1145 600 q 1129 600 1119 610 q 1109 620 1109 634 q 1109 654 1125 673 q 1141 692 1141 695 q 1141 699 1133 703 q 1124 706 1112 706 q 1074 706 1015 667 q 957 627 887 555 q 742 403 655 272 q 568 141 568 79 q 568 45 584 29 q 600 13 632 13 q 665 13 707 33 q 748 54 813 103 q 831 116 852 135 q 873 153 877 153 q 881 153 883 151 q 885 148 885 144 q 885 135 841 100 l 831 92 q 764 39 717 15 q 669 -9 630 -9 q 589 -9 566 12 q 543 34 543 72 q 543 94 552 124 q 561 154 579 196 z"},"*":{"x_min":0,"x_max":491,"ha":491,"o":"m 472 575 l 392 536 q 378 529 371 527 q 364 525 357 525 q 349 525 344 532 q 338 539 338 549 q 338 559 346 564 q 355 569 380 574 l 467 589 l 394 639 q 376 651 371 658 q 365 664 365 671 q 365 680 371 687 q 377 694 385 694 q 398 694 418 671 l 420 669 l 477 601 l 484 689 q 486 715 491 724 q 496 733 507 733 q 519 733 525 728 q 531 722 531 712 q 531 706 525 690 q 523 684 522 681 l 492 598 l 572 637 q 573 637 574 638 q 594 647 607 647 q 615 647 620 640 q 626 633 626 624 q 626 614 618 609 q 610 604 584 599 l 497 583 l 571 533 q 589 521 595 515 q 600 508 600 502 q 600 493 593 486 q 586 478 579 478 q 566 478 548 500 q 545 503 544 504 l 487 572 l 481 484 q 479 458 474 448 q 468 439 456 439 q 446 439 440 445 q 434 451 434 462 q 434 470 441 489 q 441 491 442 492 z"},"Y":{"x_min":0,"x_max":808,"ha":808,"o":"m 706 272 q 644 218 591 190 q 539 162 499 162 q 466 162 446 184 q 426 205 426 240 q 426 276 448 312 q 470 349 552 430 l 558 436 q 681 557 681 606 q 681 653 637 683 q 593 712 521 712 q 453 712 385 685 q 316 658 259 609 q 217 573 194 532 q 171 491 171 454 q 171 415 194 393 q 216 370 255 370 q 302 370 366 415 q 430 460 483 532 q 501 557 514 589 q 526 620 531 620 q 534 620 535 616 q 537 612 537 606 q 537 583 520 542 q 502 501 474 464 q 431 405 378 376 q 326 347 264 347 q 213 347 181 377 q 149 406 149 454 q 149 494 173 537 q 196 580 240 619 q 301 674 374 703 q 447 732 522 732 q 609 732 661 692 q 713 652 713 585 q 713 542 686 496 q 659 450 595 384 q 580 369 553 342 q 462 253 462 216 q 462 199 471 191 q 481 183 501 183 q 554 183 654 261 q 754 339 882 482 q 964 574 1030 631 q 1095 687 1116 687 q 1120 687 1123 685 q 1126 682 1126 679 q 1126 670 1104 657 q 1088 648 1080 642 q 1037 609 989 554 q 942 500 881 410 q 868 391 843 353 q 726 174 634 102 q 563 47 486 19 q 408 -9 327 -9 q 243 -9 192 21 q 142 51 142 100 q 142 130 161 151 q 180 172 208 172 q 230 172 242 161 q 254 150 254 131 q 254 113 244 103 q 233 93 216 93 q 205 93 191 97 q 178 102 175 102 q 172 102 170 98 q 168 94 168 88 q 168 58 210 35 q 252 12 314 12 q 419 12 517 77 q 614 141 706 272 z"},"c":{"x_min":0,"x_max":289,"ha":289,"o":"m 233 234 q 231 234 229 235 q 226 235 221 235 q 206 235 189 228 q 171 221 154 208 q 112 176 85 133 q 57 90 57 62 q 57 44 69 32 q 81 20 98 20 q 132 20 177 42 q 221 64 272 106 q 285 117 303 134 q 323 153 328 153 q 332 153 334 150 q 336 148 336 144 q 336 138 322 123 q 308 109 281 87 q 224 40 176 18 q 127 -5 84 -5 q 50 -5 29 18 q 8 41 8 78 q 8 112 28 144 q 49 176 91 208 q 122 231 154 243 q 186 255 217 255 q 240 255 253 243 q 267 232 267 213 q 267 192 253 177 q 239 162 219 162 q 207 162 199 170 q 192 177 192 190 q 192 202 203 213 q 213 225 233 234 z"},"!":{"x_min":0,"x_max":375,"ha":375,"o":"m 91 0 q 77 0 68 8 q 59 16 59 28 q 59 46 74 61 q 88 75 108 75 q 122 75 130 67 q 139 59 139 47 q 139 28 125 14 q 110 0 91 0 z m 168 165 l 503 618 q 511 629 521 635 q 531 641 540 641 q 553 641 565 633 q 577 624 577 615 q 577 605 563 589 q 560 585 558 583 l 185 151 l 184 149 q 174 138 167 138 q 163 138 161 141 q 159 143 159 148 q 159 150 162 155 q 164 159 168 165 z"},"/":{"x_min":0,"x_max":269,"ha":269,"o":"m 52 -93 l 436 731 l 474 731 l 90 -93 z"},"[":{"x_min":0,"x_max":440,"ha":440,"o":"m 581 693 q 594 711 604 717 q 615 722 637 722 l 745 722 q 755 722 759 719 q 763 716 763 709 q 763 703 759 700 q 754 697 745 697 l 670 697 q 660 697 656 694 q 651 691 645 683 l 118 -40 l 205 -40 q 215 -40 220 -43 q 224 -46 224 -53 q 224 -59 219 -62 q 214 -65 205 -65 l 72 -65 q 60 -65 54 -62 q 48 -59 48 -53 q 48 -49 53 -39 q 58 -29 66 -18 z"},"6":{"x_min":0,"x_max":403,"ha":403,"o":"m 157 226 q 107 161 81 114 q 55 67 55 43 q 55 28 62 21 q 69 14 84 14 q 111 14 160 49 q 208 84 260 142 q 306 194 332 236 q 358 278 358 300 q 358 311 354 315 q 350 320 341 320 q 326 320 305 311 q 285 302 257 283 q 231 265 204 240 q 178 216 174 216 q 169 216 165 219 q 161 221 157 226 z m 188 262 q 247 306 283 324 q 319 343 345 343 q 371 343 384 328 q 398 314 398 287 q 398 245 367 192 q 337 140 282 88 q 230 40 183 16 q 136 -8 93 -8 q 62 -8 45 9 q 28 25 28 57 q 28 112 67 183 q 107 255 175 322 q 267 413 353 464 q 438 515 495 515 q 526 515 544 500 q 562 484 562 458 q 562 432 545 414 q 529 395 506 395 q 493 395 486 402 q 478 410 478 422 q 478 441 504 455 q 530 469 530 475 q 530 483 521 488 q 512 493 498 493 q 453 493 376 436 q 299 378 188 262 z"},"r":{"x_min":0,"x_max":360,"ha":360,"o":"m 287 237 q 288 238 292 240 q 296 241 300 241 q 313 241 323 238 q 333 235 333 231 q 333 229 324 219 q 315 210 309 202 q 291 179 281 156 q 272 134 272 117 q 272 104 279 97 q 286 89 297 89 q 309 89 323 96 q 337 104 358 121 q 367 128 380 140 q 396 155 400 155 q 404 155 406 153 q 408 150 408 146 q 408 142 403 135 q 397 128 380 114 q 345 85 324 74 q 303 64 284 64 q 259 64 245 79 q 231 95 231 122 q 231 132 234 145 q 236 157 241 172 q 197 131 157 88 q 118 45 85 0 q 72 -2 62 -3 q 51 -4 42 -4 q 33 -4 27 -2 q 22 0 22 3 q 22 9 50 40 q 67 59 78 71 q 133 135 152 163 q 171 191 171 206 q 171 210 170 212 q 168 214 166 214 q 153 214 133 203 q 113 191 80 166 q 70 158 56 145 q 39 129 33 129 q 29 129 27 132 q 24 134 24 138 q 24 143 34 154 q 44 164 70 186 q 107 218 142 237 q 177 256 195 256 q 208 256 216 247 q 224 239 224 224 q 224 213 220 199 q 216 186 208 168 z"},"2":{"x_min":0,"x_max":389,"ha":389,"o":"m -2 52 q 18 62 35 67 q 53 72 68 72 q 92 72 130 54 q 168 37 182 37 q 206 37 235 57 q 264 77 268 77 q 274 77 277 74 q 280 72 280 68 q 280 63 276 58 q 272 53 261 46 l 227 24 q 202 7 181 0 q 160 -7 137 -7 q 110 -7 73 9 q 35 25 22 25 q 7 25 -14 12 q -36 0 -44 0 q -48 0 -52 5 q -55 9 -55 17 q -55 27 -46 44 q -37 62 -23 76 q 19 120 189 198 q 229 217 251 227 q 289 245 326 273 q 363 302 400 342 q 435 379 453 407 q 470 435 470 453 q 470 471 460 481 q 450 490 430 490 q 407 490 377 475 q 347 459 306 425 q 253 381 234 358 q 215 335 215 319 q 215 308 220 303 q 226 298 238 298 q 263 298 297 319 q 331 340 360 376 q 371 389 382 411 q 394 433 400 433 q 404 433 407 430 q 409 427 409 422 q 409 412 403 398 q 396 384 384 369 q 351 328 310 302 q 269 276 239 276 q 211 276 196 291 q 181 306 181 333 q 181 355 194 381 q 206 406 230 431 q 267 470 314 492 q 360 514 406 514 q 452 514 476 493 q 500 472 500 433 q 500 376 458 323 q 416 271 342 237 q 293 215 223 187 q 153 159 132 149 q 69 120 42 99 q 15 79 -2 52 z"},"{":{"x_min":0,"x_max":500,"ha":500,"o":"m 412 740 l 412 717 q 337 716 311 690 q 284 665 284 588 l 284 516 q 284 406 253 366 q 221 325 136 310 q 221 295 253 255 q 284 215 284 104 l 284 32 q 284 -44 311 -70 q 337 -96 412 -97 l 412 -119 l 407 -119 q 303 -119 264 -83 q 225 -48 225 50 l 225 158 q 225 233 196 262 q 167 291 86 297 l 86 324 q 168 332 197 360 q 225 388 225 463 l 225 571 q 225 668 264 704 q 303 740 407 740 z"},"9":{"x_min":0,"x_max":403,"ha":403,"o":"m 374 275 q 422 340 449 390 q 476 439 476 463 q 476 479 469 487 q 462 494 447 494 q 421 494 372 458 q 322 422 270 363 q 223 311 197 267 q 170 224 170 201 q 170 190 174 186 q 178 182 188 182 q 205 182 224 191 q 244 199 272 219 q 299 237 325 262 q 351 287 355 287 q 359 287 364 284 q 369 281 374 275 z m 343 240 q 284 196 249 178 q 214 160 188 160 q 163 160 149 175 q 135 190 135 216 q 135 253 157 299 q 179 344 220 390 q 273 450 330 482 q 387 514 439 514 q 470 514 488 498 q 505 481 505 452 q 505 411 475 350 q 446 289 394 226 q 355 179 313 139 q 271 100 224 68 q 167 28 125 10 q 83 -9 51 -9 q 14 -9 -7 11 q -29 31 -29 65 q -29 96 -10 119 q 8 142 32 142 q 46 142 55 134 q 64 126 64 114 q 64 98 52 89 q 40 79 19 79 l 1 79 q -3 79 -5 73 q -8 67 -8 57 q -8 38 7 26 q 21 15 46 15 q 97 15 171 71 q 246 127 343 240 z"}," ":{"x_min":0,"x_max":241,"ha":241,"o":""},"I":{"x_min":0,"x_max":711,"ha":711,"o":"m 536 265 q 514 282 501 310 q 489 338 489 371 q 489 425 523 482 q 558 540 616 581 q 698 640 789 671 q 880 702 982 706 q 1011 718 1025 723 q 1040 728 1046 728 q 1054 728 1059 725 q 1063 721 1063 715 q 1063 705 1036 698 q 1009 692 990 681 q 861 605 630 277 l 616 257 q 620 256 624 256 q 628 256 636 256 q 678 256 716 278 q 754 301 789 346 q 809 371 825 405 q 841 439 848 439 q 852 439 855 437 q 858 434 858 431 q 858 419 844 393 q 831 367 806 332 q 772 285 725 258 q 679 231 631 231 q 625 231 616 232 q 608 232 599 234 q 501 115 386 53 q 271 -10 150 -10 q 71 -10 26 21 q -19 51 -19 105 q -19 136 -2 155 q 16 175 42 175 q 62 175 74 163 q 86 151 86 132 q 86 114 74 103 q 63 93 43 93 q 40 93 31 94 q 23 96 19 96 q 16 96 15 94 q 14 92 14 86 q 14 56 51 36 q 88 17 148 17 q 246 17 341 77 q 435 138 536 265 z m 550 284 q 694 465 792 559 q 889 653 967 689 q 888 684 815 651 q 742 619 669 557 q 599 497 559 440 q 519 383 519 344 q 519 326 526 312 q 534 297 550 284 z"},"H":{"x_min":0,"x_max":759,"ha":759,"o":"m 447 294 q 262 258 142 192 q 22 126 22 70 q 22 45 41 31 q 61 16 94 16 q 168 16 256 85 q 344 155 447 294 z m 546 316 q 440 161 324 77 q 208 -7 100 -7 q 51 -7 23 16 q -4 38 -4 79 q -4 155 109 214 q 223 273 472 326 q 514 382 553 430 q 592 477 630 519 q 599 498 573 488 q 546 478 523 478 q 494 478 479 491 q 463 504 463 529 q 463 564 524 611 q 533 617 538 621 q 558 636 565 645 q 572 653 572 660 q 572 667 566 671 q 561 675 550 675 q 516 675 467 651 q 418 626 370 585 q 359 576 342 558 q 326 541 319 541 q 316 541 314 543 q 312 545 312 549 q 312 559 326 575 q 340 592 366 612 q 419 654 471 677 q 524 701 561 701 q 589 701 604 688 q 619 676 619 652 q 619 637 611 623 q 603 609 587 596 q 579 590 564 579 q 509 536 509 514 q 509 508 515 505 q 521 502 531 502 q 560 502 598 526 q 636 549 723 627 q 749 650 783 685 q 818 719 826 719 q 829 719 832 717 q 834 714 834 711 q 834 710 745 595 q 656 481 569 348 l 721 381 q 864 562 964 648 q 1063 733 1131 733 q 1159 733 1174 717 q 1189 700 1189 670 q 1189 584 1083 504 q 976 423 790 372 l 580 88 q 562 63 556 52 q 550 40 550 31 q 550 23 556 20 q 562 16 575 16 q 599 16 639 36 q 679 57 723 92 q 743 108 770 132 q 796 156 802 156 q 806 156 809 154 q 811 151 811 148 q 811 142 796 126 q 780 111 745 82 q 689 36 645 14 q 600 -9 562 -9 q 535 -9 519 5 q 504 18 504 42 q 504 97 645 284 q 676 325 693 348 z m 815 404 q 896 427 958 459 q 1020 490 1069 534 q 1114 574 1140 612 q 1166 649 1166 674 q 1166 692 1157 701 q 1148 711 1131 711 q 1079 711 1003 637 q 927 563 815 404 z"},"4":{"x_min":0,"x_max":424,"ha":424,"o":"m 96 164 q 63 160 45 152 q 27 144 27 134 q 27 131 31 129 q 35 127 42 127 q 53 127 67 136 q 81 146 96 164 z m 300 130 l 233 50 q 229 45 222 36 q 193 1 175 1 l 139 1 q 134 1 130 3 q 127 5 127 8 q 127 10 129 13 q 130 16 134 21 l 233 145 q 206 152 179 157 q 152 162 125 165 q 105 137 81 122 q 57 106 34 106 q 21 106 12 113 q 3 119 3 129 q 3 154 33 170 q 62 186 113 187 q 221 361 282 438 q 343 514 373 514 q 391 514 403 510 q 415 505 415 499 q 415 499 324 400 q 232 301 144 183 q 170 180 196 175 q 222 170 249 164 q 375 323 464 415 q 553 507 580 507 q 584 507 587 505 q 589 503 589 500 q 589 496 567 478 q 545 460 528 442 q 477 389 386 255 q 338 185 312 149 q 328 146 340 145 q 352 144 360 144 q 367 144 377 146 q 387 147 390 147 q 394 147 396 144 q 399 141 399 136 q 399 130 389 126 q 379 122 362 122 q 349 122 334 124 q 318 126 300 130 z"},"~":{"x_min":0,"x_max":833,"ha":833,"o":"m 747 361 l 747 316 q 695 280 648 262 q 602 244 558 244 q 510 244 428 274 q 420 277 417 278 q 412 280 401 284 q 320 313 276 313 q 235 313 190 295 q 146 276 87 235 l 87 280 q 138 316 185 333 q 232 351 276 351 q 325 351 408 321 q 414 319 417 318 q 421 316 431 313 q 513 283 558 283 q 599 283 644 302 q 688 320 747 361 z"},"D":{"x_min":0,"x_max":889,"ha":889,"o":"m 396 28 q 413 23 430 21 q 448 18 467 18 q 532 18 592 41 q 653 64 705 109 q 788 180 835 274 q 883 368 883 459 q 883 483 879 506 q 875 530 868 553 q 835 519 778 424 q 721 330 691 287 q 617 181 547 119 q 477 58 396 28 z m 293 25 q 237 42 191 51 q 145 60 114 60 q 101 60 93 56 q 85 52 85 46 q 85 32 119 24 q 154 16 213 16 q 240 16 259 18 q 278 21 293 25 z m 345 12 q 307 2 273 -3 q 239 -8 210 -8 q 136 -8 98 7 q 59 22 59 50 q 59 67 74 76 q 88 85 117 85 q 151 85 199 76 q 248 66 341 41 q 397 62 460 118 q 523 174 599 271 q 621 299 662 354 q 783 516 856 575 q 827 635 774 667 q 722 699 653 699 q 592 699 528 673 q 464 647 406 599 q 342 546 303 485 q 264 424 264 382 q 264 348 288 326 q 312 305 351 305 q 425 305 501 366 q 578 427 625 526 q 635 548 643 576 q 651 604 658 604 q 664 604 666 601 q 669 598 669 592 q 669 571 652 529 q 635 487 608 449 q 553 371 486 327 q 418 282 356 282 q 300 282 268 316 q 235 349 235 406 q 235 449 255 495 q 275 542 313 586 q 371 654 451 691 q 532 727 625 727 q 710 727 771 694 q 832 661 875 591 q 908 613 932 626 q 957 639 967 639 q 971 639 975 636 q 979 632 979 628 q 979 624 947 608 q 916 591 888 567 q 896 540 900 513 q 904 486 904 458 q 904 382 874 306 q 844 231 786 160 q 718 78 639 36 q 560 -6 473 -6 q 453 -6 427 -2 q 401 1 345 12 z"},"^":{"x_min":0,"x_max":1000,"ha":1000,"o":"m 462 714 l 536 714 l 797 438 l 756 438 l 499 665 l 240 438 l 201 438 z"},"0":{"x_min":0,"x_max":421,"ha":421,"o":"m 55 49 q 55 33 64 25 q 72 18 92 18 q 132 18 206 68 q 279 118 350 197 q 421 276 467 354 q 513 431 513 461 q 513 476 506 484 q 500 492 486 492 q 447 492 378 438 q 309 385 215 281 q 146 205 100 137 q 55 70 55 49 z m 84 -7 q 56 -7 38 12 q 21 31 21 62 q 21 108 61 178 q 102 248 170 316 q 265 411 348 463 q 430 514 486 514 q 513 514 527 498 q 541 482 541 453 q 541 406 498 337 q 454 268 366 175 q 287 92 209 43 q 131 -7 84 -7 z"},"F":{"x_min":0,"x_max":762,"ha":762,"o":"m 613 365 q 486 336 383 279 q 366 270 363 270 q 359 270 356 273 q 353 275 353 279 q 353 297 424 328 q 496 359 642 404 q 713 513 774 582 q 834 651 855 651 q 859 651 861 649 q 863 647 863 644 q 863 640 845 617 q 772 526 722 424 q 778 437 834 458 q 890 479 895 479 q 903 479 908 476 q 912 473 912 468 q 912 460 884 438 q 855 416 839 392 q 827 375 815 352 q 804 329 797 329 q 785 329 778 333 q 770 337 770 344 q 770 352 784 374 q 798 396 822 424 q 797 418 769 409 q 740 401 699 387 q 577 186 458 88 q 339 -9 215 -9 q 144 -9 102 23 q 60 55 60 107 q 60 137 77 156 q 94 175 120 175 q 140 175 152 163 q 164 151 164 132 q 164 114 152 103 q 140 93 120 93 q 117 93 109 94 q 101 96 97 96 q 94 96 93 94 q 91 92 91 87 q 91 60 124 38 q 156 17 203 17 q 281 17 364 84 q 447 151 613 365 z m 642 600 q 642 587 628 557 q 614 527 593 498 q 547 436 491 403 q 435 370 374 370 q 316 370 282 404 q 248 438 248 495 q 248 599 349 665 q 449 731 613 731 q 688 731 840 708 l 846 707 q 865 704 899 699 q 1021 680 1053 680 q 1089 680 1129 690 q 1138 693 1140 693 q 1144 693 1147 691 q 1150 688 1150 685 q 1150 671 1115 657 q 1080 643 1033 643 q 1013 643 991 646 q 969 648 948 653 q 936 656 912 662 q 723 708 630 708 q 558 708 499 690 q 439 673 394 638 q 337 595 309 556 q 281 517 281 481 q 281 443 308 420 q 335 396 379 396 q 436 396 490 432 q 543 468 589 538 q 601 556 613 583 q 625 611 633 611 q 637 611 640 608 q 642 605 642 600 z"},"`":{"x_min":0,"x_max":500,"ha":500,"o":"m 413 300 q 413 297 411 295 q 408 292 406 292 q 401 292 395 296 q 389 301 376 313 q 336 355 321 381 q 306 406 306 427 q 306 445 315 456 q 324 467 339 467 q 353 467 361 458 q 368 449 368 432 q 368 431 368 421 q 367 411 367 403 q 367 359 404 314 q 413 303 413 300 z"},"k":{"x_min":0,"x_max":412,"ha":412,"o":"m 39 0 q 23 -2 15 -3 q 8 -4 1 -4 q -9 -4 -14 -1 q -20 1 -20 5 q -20 10 12 46 q 21 56 26 62 l 173 233 q 120 199 71 158 q 21 118 18 118 q 15 118 14 120 q 12 123 12 127 q 12 137 66 180 q 120 223 227 299 l 476 588 l 477 589 q 486 600 498 600 q 512 600 523 596 q 533 592 533 587 q 533 584 531 581 q 529 577 525 572 l 202 196 q 243 226 274 241 q 305 256 325 256 q 345 256 357 245 q 369 234 369 215 q 369 197 357 184 q 344 172 325 172 q 316 172 310 179 q 303 186 303 196 q 303 206 310 214 q 317 223 333 231 l 329 231 q 309 231 283 219 q 256 206 215 177 q 237 169 248 156 q 259 143 259 123 q 259 103 237 75 q 215 47 215 32 q 215 27 219 24 q 222 22 229 22 q 250 22 292 43 q 333 64 381 100 q 400 114 423 134 q 446 153 450 153 q 454 153 456 150 q 458 148 458 144 q 458 135 404 91 l 401 89 q 347 45 297 21 q 248 -4 216 -4 q 194 -4 180 10 q 166 23 166 44 q 166 64 187 94 q 208 124 208 137 q 208 149 200 156 q 193 163 178 164 q 140 125 105 83 q 71 42 39 0 z"},"u":{"x_min":0,"x_max":444,"ha":444,"o":"m 109 180 q 82 165 54 143 q 26 122 22 122 q 19 122 17 124 q 15 126 15 129 q 15 137 33 150 l 34 151 l 64 174 q 119 216 154 237 q 189 258 206 258 q 228 258 241 255 q 255 252 255 247 q 255 246 252 242 q 250 239 246 236 l 160 161 q 115 122 84 84 q 54 46 54 33 q 54 27 58 23 q 62 20 69 20 q 90 20 128 39 q 166 58 197 87 l 372 245 q 375 247 378 251 q 386 259 392 259 q 416 259 431 255 q 447 251 447 247 q 447 245 444 242 q 442 239 438 236 l 353 161 q 308 122 277 84 q 247 46 247 33 q 247 27 251 23 q 255 20 262 20 q 277 20 314 37 q 350 54 391 82 q 420 102 450 127 q 479 153 483 153 q 487 153 489 151 q 491 148 491 144 q 491 135 445 98 l 434 89 q 380 45 330 21 q 280 -4 249 -4 q 223 -4 209 7 q 195 18 195 39 q 195 45 195 48 q 195 51 196 54 q 142 22 110 9 q 79 -4 57 -4 q 36 -4 22 8 q 9 20 9 38 q 9 63 34 98 q 59 133 109 180 z"},"]":{"x_min":0,"x_max":440,"ha":440,"o":"m 139 -36 q 126 -54 116 -60 q 105 -65 83 -65 l -25 -65 q -36 -65 -40 -62 q -44 -59 -44 -52 q -44 -46 -39 -43 q -34 -40 -25 -40 l 50 -40 q 59 -40 64 -37 q 68 -35 75 -26 l 602 697 l 515 697 q 504 697 500 699 q 496 702 496 709 q 496 715 501 719 q 506 722 515 722 l 647 722 q 659 722 666 719 q 672 716 672 710 q 672 707 667 696 q 662 686 654 675 z"},"U":{"x_min":0,"x_max":841,"ha":841,"o":"m 622 122 q 544 55 492 22 q 440 -10 409 -10 q 386 -10 372 4 q 359 18 359 42 q 359 96 443 188 l 447 192 l 518 270 q 622 384 635 402 l 636 403 q 710 499 710 564 q 710 627 654 669 q 598 710 510 710 q 445 710 381 689 q 318 668 263 628 q 209 589 178 540 q 147 491 147 446 q 147 403 175 375 q 202 346 244 346 q 298 346 369 391 q 441 435 493 505 q 516 535 531 572 q 546 608 554 608 q 557 608 559 605 q 560 602 560 588 q 560 563 544 525 q 527 486 501 453 q 450 389 387 355 q 323 321 254 321 q 196 321 160 356 q 124 391 124 448 q 124 486 143 526 q 162 565 198 603 q 257 664 340 698 q 423 733 512 733 q 616 733 678 680 q 740 626 740 538 q 740 423 516 168 l 497 147 q 484 132 460 107 q 406 48 406 28 q 406 22 411 20 q 415 17 424 17 q 444 17 508 60 q 571 104 628 163 l 928 478 q 955 506 965 514 q 975 522 981 522 q 991 522 1002 511 q 1012 501 1012 492 q 1012 486 954 427 q 896 368 847 313 q 748 202 689 125 q 630 47 630 30 q 630 22 633 19 q 637 15 644 15 q 667 15 703 32 q 739 49 788 82 q 817 103 847 128 q 876 153 880 153 q 884 153 886 151 q 888 148 888 144 q 888 134 836 93 l 833 90 q 776 44 725 17 q 673 -10 645 -10 q 622 -10 609 3 q 596 15 596 39 q 596 53 602 73 q 608 94 622 122 z"},"o":{"x_min":0,"x_max":324,"ha":324,"o":"m 26 38 q 26 29 30 26 q 35 22 44 22 q 65 22 101 42 q 136 62 182 101 q 222 135 245 165 q 267 194 267 212 q 267 221 261 227 q 256 232 246 232 q 229 232 201 216 q 172 200 140 173 q 88 128 57 92 q 26 55 26 38 z m 241 125 q 178 63 126 31 q 74 -2 37 -2 q 12 -2 -3 13 q -18 27 -18 52 q -18 86 10 124 q 37 163 88 199 q 126 227 166 242 q 206 258 236 258 q 260 258 275 245 q 290 232 290 211 q 290 197 281 179 q 273 162 256 141 q 261 130 271 125 q 280 119 293 119 q 312 119 336 136 q 360 153 366 153 q 369 153 371 151 q 372 149 372 145 q 372 135 344 117 q 316 99 293 99 q 277 99 265 105 q 252 111 241 125 z"},"N":{"x_min":0,"x_max":755,"ha":755,"o":"m 647 616 q 558 523 431 358 q 305 193 255 137 q 192 67 130 31 q 68 -6 12 -6 q -37 -6 -67 18 q -97 42 -97 81 q -97 113 -73 137 q -49 160 -16 160 q 7 160 21 148 q 34 137 34 117 q 34 97 22 86 q 10 75 -12 75 q -25 75 -42 83 q -58 91 -62 91 q -67 91 -71 86 q -74 81 -74 73 q -74 50 -49 34 q -24 17 12 17 q 44 17 78 31 q 112 44 149 71 q 228 129 430 393 q 466 440 485 465 q 577 584 646 658 q 714 732 732 732 q 734 732 736 731 q 737 729 737 727 q 737 719 712 667 q 687 615 673 566 q 665 536 649 471 q 595 242 528 111 l 750 382 q 896 561 997 650 q 1098 740 1152 740 q 1161 740 1166 737 q 1171 734 1171 728 q 1171 720 1150 714 q 1129 709 1116 703 q 1056 675 980 604 q 904 533 803 409 l 496 33 q 478 10 467 1 q 456 -9 449 -9 q 445 -9 443 -6 q 441 -3 441 1 q 441 5 453 27 q 465 49 473 69 q 496 125 517 213 q 521 230 523 238 l 525 248 q 577 458 647 616 z"},"+":{"x_min":0,"x_max":833,"ha":833,"o":"m 397 596 l 436 596 l 436 318 l 709 318 l 709 278 l 436 278 l 436 0 l 397 0 l 397 278 l 124 278 l 124 318 l 397 318 z"},"G":{"x_min":0,"x_max":690,"ha":690,"o":"m 397 348 q 479 365 560 403 q 641 441 712 497 q 785 554 833 610 q 881 665 881 687 q 881 698 872 704 q 864 710 849 710 q 773 710 644 609 q 514 508 397 348 z m 344 336 q 354 405 419 484 q 485 563 593 633 q 663 679 731 705 q 800 731 846 731 q 875 731 891 717 q 907 704 907 678 q 907 646 879 607 q 851 569 792 521 q 694 442 592 391 q 489 340 383 318 q 376 303 374 292 q 371 282 371 274 q 371 249 388 233 q 406 218 435 218 q 465 218 512 239 q 559 259 612 297 q 618 301 631 311 q 716 371 753 406 q 754 407 757 410 q 772 426 785 426 q 789 426 791 424 q 793 422 793 419 q 793 404 766 383 q 760 378 756 375 q 727 351 667 273 q 650 251 641 240 q 638 236 630 227 q 540 112 464 66 q 399 27 333 9 q 267 -10 191 -10 q 95 -10 44 20 q -7 50 -7 107 q -7 137 10 156 q 27 175 53 175 q 72 175 85 163 q 97 151 97 132 q 97 114 85 103 q 73 93 53 93 q 50 93 42 94 q 34 96 30 96 q 27 96 25 94 q 24 91 24 87 q 24 56 67 35 q 111 15 182 15 q 283 15 371 65 q 458 116 544 224 q 508 208 481 201 q 455 194 434 194 q 389 194 364 221 q 339 248 339 298 l 339 311 q 311 307 277 305 q 244 303 201 303 l 165 303 q 154 303 148 306 q 142 309 142 315 q 142 320 148 323 q 153 326 164 326 l 192 326 q 244 326 280 329 q 316 331 344 336 z"},"q":{"x_min":0,"x_max":376,"ha":376,"o":"m 142 7 l -38 -201 q -48 -212 -53 -224 q -59 -235 -59 -245 q -59 -251 -57 -255 q -55 -259 -51 -259 q -37 -259 -13 -242 q 10 -225 38 -193 q 85 -140 112 -89 q 139 -38 142 7 z m 128 70 l 240 192 q 247 199 250 206 q 254 213 254 219 q 254 224 250 227 q 247 230 241 230 q 224 230 198 216 q 172 203 142 178 q 95 139 65 97 q 35 54 35 33 q 35 26 39 22 q 43 17 50 17 q 63 17 84 31 q 105 45 128 70 z m 162 7 q 161 -38 139 -85 q 117 -132 75 -182 q 31 -234 0 -258 q -32 -282 -55 -282 q -70 -282 -79 -270 q -89 -258 -89 -240 q -89 -199 -44 -137 q 0 -75 99 23 q 78 9 61 2 q 45 -5 33 -5 q 13 -5 1 10 q -10 25 -10 53 q -10 86 6 116 q 21 146 54 174 q 96 211 144 233 q 193 256 228 256 q 250 256 260 249 q 270 241 272 222 q 279 230 288 238 q 297 245 308 252 q 312 252 319 252 q 327 253 330 253 q 347 253 354 250 q 362 248 362 241 q 362 235 339 215 q 327 205 320 198 q 254 136 217 93 q 180 49 180 33 q 180 27 183 24 q 187 22 194 22 q 215 22 257 43 q 298 63 345 99 q 365 114 387 133 q 410 153 414 153 q 417 153 420 150 q 422 148 422 144 q 422 135 376 98 l 365 89 q 313 47 267 23 q 220 -1 193 -1 q 183 -1 176 1 q 168 3 162 7 z"},"d":{"x_min":0,"x_max":374,"ha":374,"o":"m 129 73 l 211 160 q 214 164 221 170 q 255 207 255 219 q 255 224 251 227 q 248 230 242 230 q 226 230 198 216 q 171 202 143 178 q 97 140 66 98 q 36 56 36 36 q 36 29 40 25 q 44 21 51 21 q 64 21 85 35 q 106 49 129 73 z m 133 53 q 104 24 79 10 q 54 -5 34 -5 q 14 -5 2 10 q -9 25 -9 53 q -9 86 7 116 q 22 146 55 174 q 98 211 146 234 q 194 256 230 256 q 251 256 261 248 q 271 241 273 222 l 570 588 q 575 595 581 597 q 586 600 594 600 q 610 600 620 596 q 630 593 630 587 q 630 583 628 580 q 627 577 621 571 l 211 84 q 196 67 188 54 q 181 41 181 33 q 181 27 184 24 q 187 22 194 22 q 215 22 257 43 q 299 63 346 99 q 366 114 388 133 q 411 153 415 153 q 418 153 421 150 q 423 148 423 144 q 423 135 368 91 l 366 89 q 311 45 261 20 q 212 -5 181 -5 q 159 -5 145 8 q 132 21 132 42 q 132 46 132 49 q 132 51 133 53 z"},"1":{"x_min":0,"x_max":262,"ha":262,"o":"m 280 350 q 205 286 156 253 q 106 220 86 220 q 81 220 78 222 q 75 224 75 227 q 75 236 88 243 q 90 244 91 244 q 122 259 158 285 q 194 311 246 357 q 263 372 294 399 q 426 514 453 514 q 459 514 464 511 q 468 509 468 505 q 468 497 442 470 q 431 459 425 452 q 324 344 220 210 q 200 184 193 175 l 65 22 l 63 20 q 46 0 28 0 l -5 0 q -10 0 -13 2 q -16 4 -16 6 q -16 20 61 110 q 139 200 280 350 z"},"5":{"x_min":0,"x_max":380,"ha":380,"o":"m 175 291 l 286 448 q 316 492 335 505 q 354 517 380 517 q 397 517 439 509 q 481 500 505 500 q 521 500 537 506 q 542 508 543 508 q 547 508 550 506 q 553 504 553 500 q 553 484 526 464 q 498 444 472 444 q 450 444 408 460 q 365 476 349 476 q 344 476 338 473 q 333 470 330 466 l 219 312 q 242 322 261 328 q 281 333 294 333 q 333 333 353 314 q 372 294 372 256 q 372 221 347 177 q 322 133 278 91 q 225 40 174 15 q 123 -9 70 -9 q 29 -9 2 15 q -25 39 -25 75 q -25 105 -5 127 q 14 148 42 148 q 59 148 69 139 q 79 131 79 116 q 79 102 69 93 q 59 83 44 83 q 37 83 27 86 q 17 89 13 89 q 6 89 2 84 q -2 79 -2 69 q -2 47 18 31 q 37 14 65 14 q 98 14 137 40 q 177 65 232 123 q 279 171 305 212 q 330 252 330 278 q 330 295 321 303 q 312 311 292 311 q 273 311 249 303 q 225 295 192 277 q 182 258 170 247 q 158 236 147 236 q 141 236 138 239 q 135 241 135 247 q 135 257 145 268 q 154 279 175 291 z"}}}
